<?xml version="1.0" encoding="UTF-8"?>
<svg version="1.1" xmlns="http://www.w3.org/2000/svg" width="1600" height="1067">
<path d="M0 0 C528 0 1056 0 1600 0 C1600 352.11 1600 704.22 1600 1067 C1072 1067 544 1067 0 1067 C0 714.89 0 362.78 0 0 Z " fill="#EC1D24" transform="translate(0,0)"/>
<path d="M0 0 C264 0 528 0 800 0 C800 175.89 800 351.78 800 533 C536 533 272 533 0 533 C0 357.11 0 181.22 0 0 Z " fill="#2A3086" transform="translate(0,0)"/>
<path d="M0 0 C21.12649841 17.8798576 34.87293657 42.67849755 37.30859375 70.46972656 C38.94660436 100.27128216 29.64775836 126.37932211 10.35546875 149.09765625 C-6.15477034 167.2083777 -30.03634532 179.75789076 -54.54833984 181.93798828 C-58.20600474 182.08895851 -61.84320971 182.13635094 -65.50390625 182.1171875 C-66.80730957 182.11074219 -68.11071289 182.10429687 -69.45361328 182.09765625 C-97.70316681 181.56930235 -122.29369777 169.96659985 -141.94140625 149.6171875 C-161.41175876 127.66248733 -170.26900415 100.71478223 -168.94140625 71.6171875 C-167.27977445 45.16508119 -154.64210803 21.2151976 -135.6796875 3.01953125 C-97.23029682 -30.71281578 -39.82856425 -32.63567199 0 0 Z " fill="#FEFEFE" transform="translate(464.94140625,186.3828125)"/>
<path d="M0 0 C4.15936842 1.47615293 7.52547725 3.54990115 11.1875 6 C19.51815743 11.49029778 28.23753697 16.2412474 37 21 C35.3993244 24.97526224 32.62856444 27.64020304 29.63232422 30.59472656 C29.08583221 31.14151062 28.53934021 31.68829468 27.97628784 32.25164795 C26.17378907 34.05275649 24.36431604 35.84668247 22.5546875 37.640625 C21.30157633 38.89000495 20.04890681 40.13982801 18.79666138 41.39007568 C15.50324045 44.67586872 12.20385709 47.9556107 8.90319824 51.23413086 C5.53471006 54.58214253 2.1718924 57.93583907 -1.19140625 61.2890625 C-7.78873176 67.86495296 -14.39236983 74.43446516 -21 81 C-22.20068836 77.39793493 -21.69741532 76.19220499 -20.62890625 72.6015625 C-20.30583496 71.4969165 -19.98276367 70.39227051 -19.64990234 69.25415039 C-19.29105957 68.05653076 -18.9322168 66.85891113 -18.5625 65.625 C-18.00635277 63.72723065 -17.45023809 61.82945103 -16.89605713 59.93110657 C-16.51167638 58.61466711 -16.12636672 57.29849856 -15.74017334 55.98258972 C-13.70391388 49.03155193 -11.78589429 42.04893072 -9.875 35.0625 C-6.66161297 23.35203217 -3.36632233 11.66736717 0 0 Z " fill="#F8F9FC" transform="translate(322,355)"/>
<path d="M0 0 C2.44677021 3.67015531 3.30961362 7.3855743 4.390625 11.6015625 C4.61595413 12.46282745 4.84128326 13.32409241 5.07344055 14.2114563 C5.80480867 17.01448657 6.52761982 19.81964123 7.25 22.625 C7.74836688 24.54335915 8.24698393 26.46165332 8.74584961 28.37988281 C11.70518453 39.79484983 14.58746535 51.22476153 17.24902344 62.71337891 C18.08965618 66.3280997 18.93681406 69.81751044 20.15234375 73.328125 C21 76 21 76 21 81 C7.14 81 -6.72 81 -21 81 C-20.30206047 76.1144233 -19.51761434 71.77726615 -18.26586914 67.05834961 C-18.09337143 66.40372238 -17.92087372 65.74909515 -17.7431488 65.07463074 C-17.17769182 62.93282149 -16.6065537 60.79257512 -16.03515625 58.65234375 C-15.63751894 57.15222311 -15.24017987 55.6520234 -14.84312439 54.15174866 C-14.01254476 51.01676517 -13.17931191 47.88250356 -12.34399414 44.7487793 C-11.27632405 40.74305702 -10.21384767 36.73598069 -9.15317631 32.72840023 C-8.33372138 29.63353848 -7.51224563 26.53921611 -6.69009209 23.44507027 C-6.29774626 21.96808322 -5.90584991 20.49097669 -5.51442146 19.01374626 C-4.96605583 16.94606255 -4.41515134 14.87907182 -3.86352539 12.81225586 C-3.55121475 11.63868027 -3.23890411 10.46510468 -2.91712952 9.25596619 C-2.03754184 6.13327993 -1.05301939 3.06805583 0 0 Z " fill="#F7F9FB" transform="translate(400,70)"/>
<path d="M0 0 C3.06174093 9.32853834 5.73263513 18.67951206 8.0534668 28.21948242 C9.56350231 34.3772212 11.23481315 40.47328083 13 46.5625 C15.01616385 53.5524774 17.02439485 60.54349061 18.9375 67.5625 C19.16115234 68.35406494 19.38480469 69.14562988 19.61523438 69.96118164 C20.6249845 73.71690941 21.15780349 76.28462972 20 80 C17.64147344 77.67104031 15.28903326 75.3360189 12.9375 73 C12.28072266 72.35160156 11.62394531 71.70320313 10.94726562 71.03515625 C10.29306641 70.38417969 9.63886719 69.73320312 8.96484375 69.0625 C8.3730835 68.47597656 7.78132324 67.88945312 7.17163086 67.28515625 C5.3066006 65.32262862 3.53945661 63.31961874 1.7734375 61.26904297 C-2.07014119 56.85200204 -6.16867754 52.73858874 -10.33984375 48.6328125 C-11.91223675 47.07304506 -13.48449871 45.51314552 -15.05664062 43.953125 C-17.5128712 41.52186969 -19.9706879 39.09225729 -22.4309082 36.66503906 C-24.82152835 34.30443461 -27.20604474 31.93780197 -29.58984375 29.5703125 C-30.33346664 28.84014923 -31.07708954 28.10998596 -31.84324646 27.35769653 C-32.52137894 26.68294281 -33.19951141 26.00818909 -33.89819336 25.31298828 C-34.49885117 24.7197879 -35.09950897 24.12658752 -35.71836853 23.51541138 C-37 22 -37 22 -37 20 C-36.43716309 19.71390869 -35.87432617 19.42781738 -35.29443359 19.13305664 C-24.70673366 13.72916536 -14.36833589 8.25304839 -4.51953125 1.58203125 C-2 0 -2 0 0 0 Z " fill="#F9FAFD" transform="translate(477,354)"/>
<path d="M0 0 C6.77715965 5.5583674 12.88350353 11.75631661 19.05859375 17.9609375 C20.21422229 19.11843426 21.37007414 20.27570811 22.52613831 21.43276978 C25.54827738 24.45870218 28.56739953 27.48762697 31.58587646 30.51721191 C34.67455447 33.61617295 37.76611335 36.71225713 40.85742188 39.80859375 C46.90775098 45.86960394 52.95489193 51.93378247 59 58 C55.67500303 59.10653656 53.62086646 58.87517365 50.2734375 57.92358398 C49.33725586 57.66258408 48.40107422 57.40158417 47.43652344 57.13267517 C46.4262207 56.8401033 45.41591797 56.54753143 44.375 56.24609375 C43.31829102 55.94816422 42.26158203 55.65023468 41.17285156 55.34327698 C37.77922572 54.38384614 34.38969934 53.41070128 31 52.4375 C28.7788906 51.80837999 26.5575386 51.18011583 24.3359375 50.55273438 C-8.43657317 41.26991467 -8.43657317 41.26991467 -21 37 C-13.41067397 23.63199932 -13.41067397 23.63199932 -9.9375 17.9375 C-6.39136807 12.08589387 -3.20214346 6.04428263 0 0 Z " fill="#FAFBFD" transform="translate(511,302)"/>
<path d="M0 0 C-5.11928587 5.14478747 -10.24260409 10.28553431 -15.36865234 15.42358398 C-17.10947721 17.16941587 -18.84940078 18.91614698 -20.58837891 20.66381836 C-23.09817866 23.1858435 -25.61127717 25.70454196 -28.125 28.22265625 C-28.89303955 28.99585709 -29.6610791 29.76905792 -30.45239258 30.56568909 C-34.57442389 34.68814104 -38.77347891 38.6473862 -43.20800781 42.43286133 C-46.28253989 45.12161084 -49.13502113 48.02911236 -52 50.9375 C-52.58394531 51.52595703 -53.16789063 52.11441406 -53.76953125 52.72070312 C-55.18204805 54.14479793 -56.5913781 55.5720525 -58 57 C-60.39454111 54.80439 -61.89273202 52.65001134 -63.41796875 49.7890625 C-63.86422607 48.96180664 -64.3104834 48.13455078 -64.77026367 47.28222656 C-65.23795166 46.4053418 -65.70563965 45.52845703 -66.1875 44.625 C-70.54069945 36.57423408 -75.08355705 28.71980154 -80 21 C-77.6054239 18.6054239 -76.07509326 18.30769818 -72.8203125 17.44921875 C-71.75611084 17.16546387 -70.69190918 16.88170898 -69.59545898 16.58935547 C-68.45020752 16.29174316 -67.30495605 15.99413086 -66.125 15.6875 C-64.95203369 15.37699707 -63.77906738 15.06649414 -62.57055664 14.74658203 C-54.7347416 12.68225374 -46.87775853 10.71086809 -39.00854492 8.77856445 C-33.61038628 7.43994496 -28.2678852 5.96150912 -22.9375 4.375 C-22.24108398 4.1677832 -21.54466797 3.96056641 -20.82714844 3.74707031 C-17.76324165 2.83187738 -14.70147149 1.90974719 -11.640625 0.984375 C-10.66609375 0.70078125 -9.6915625 0.4171875 -8.6875 0.125 C-7.86636719 -0.11992187 -7.04523438 -0.36484375 -6.19921875 -0.6171875 C-3.77534375 -1.03910535 -2.3382346 -0.65773384 0 0 Z " fill="#FAFBFD" transform="translate(568,168)"/>
<path d="M0 0 C0 14.19 0 28.38 0 43 C-5.28 41.68 -10.56 40.36 -16 39 C-18.03929687 38.49597656 -20.07859375 37.99195313 -22.1796875 37.47265625 C-33.36370606 34.70785166 -44.49197613 31.81094425 -55.578125 28.67822266 C-60.42001116 27.32229929 -65.27326534 26.00765755 -70.125 24.6875 C-71.10484863 24.42066406 -72.08469727 24.15382813 -73.09423828 23.87890625 C-75.3960559 23.25222476 -77.69797258 22.6259103 -80 22 C-80 21.34 -80 20.68 -80 20 C-79.33839874 19.83570999 -78.67679749 19.67141998 -77.99514771 19.50215149 C-71.67219514 17.93155182 -65.34985314 16.35851873 -59.02813911 14.78294086 C-55.78030551 13.97356026 -52.53220331 13.16529925 -49.28369141 12.35864258 C-35.9128213 9.0378572 -22.55610192 5.70598355 -9.30419922 1.93432617 C-2.46354847 0 -2.46354847 0 0 0 Z " fill="#F9FAFC" transform="translate(282,244)"/>
<path d="M0 0 C3.17001242 1.58500621 3.9839563 4.84580672 5.4375 7.9375 C8.99103477 15.31785328 13.079238 22.24973419 17.49389648 29.14624023 C17.94966064 29.86755127 18.4054248 30.5888623 18.875 31.33203125 C19.28492188 31.96858643 19.69484375 32.6051416 20.1171875 33.26098633 C21 35 21 35 21 38 C6.95338697 41.8446814 -7.1015238 45.65695508 -21.17163086 49.41479492 C-23.11525596 49.93430961 -25.05861139 50.45483416 -27.00170898 50.97631836 C-37.63054747 53.82877772 -48.24530844 56.65497301 -59 59 C-55.26219613 54.43157305 -51.28759546 50.17831326 -47.125 46 C-46.64385742 45.5143457 -46.16271484 45.02869141 -45.66699219 44.52832031 C-42.96677899 41.83885779 -40.19390885 39.28306441 -37.30029297 36.80249023 C-33.02099314 33.07069419 -28.99840057 29.1263809 -25 25.09765625 C-24.2788501 24.3750914 -23.5577002 23.65252655 -22.81469727 22.9080658 C-20.54074585 20.62857396 -18.27032046 18.3456076 -16 16.0625 C-14.44684765 14.50432494 -12.89346433 12.94638007 -11.33984375 11.38867188 C-7.55722414 7.59510241 -3.7774831 3.79868385 0 0 Z " fill="#FAFBFD" transform="translate(286,307)"/>
<path d="M0 0 C5.62883299 4.68570406 10.83578987 9.68479552 16 14.875 C16.76828125 15.63941406 17.5365625 16.40382813 18.328125 17.19140625 C21.74378815 20.61287836 25.08791324 24.04480757 28.22265625 27.7265625 C33.60689056 33.98097609 39.58486118 39.68940942 45.4375 45.5 C46.6584369 46.71591114 47.87914192 47.93205516 49.09960938 49.1484375 C52.06374013 52.10164966 55.03098958 55.05169398 58 58 C55.79595537 60.40801792 53.63375198 61.89576013 50.75390625 63.41796875 C49.92173584 63.86430664 49.08956543 64.31064453 48.23217773 64.77050781 C47.35118408 65.23811523 46.47019043 65.70572266 45.5625 66.1875 C38.45389845 70.00514143 31.74149956 73.97750104 25.21484375 78.734375 C24.48394531 79.15203125 23.75304687 79.5696875 23 80 C21.515 79.505 21.515 79.505 20 79 C19.14138794 76.95082092 19.14138794 76.95082092 18.45361328 74.21508789 C18.18968781 73.19214127 17.92576233 72.16919464 17.65383911 71.11524963 C17.37877533 69.99569382 17.10371155 68.876138 16.8203125 67.72265625 C16.52567108 66.5681749 16.23102966 65.41369354 15.92745972 64.22422791 C14.9812253 60.50659255 14.05263352 56.78481583 13.125 53.0625 C12.20336362 49.41195968 11.2781152 45.76235024 10.35223389 42.11288452 C9.74937675 39.73466402 9.14849394 37.35594214 8.54962158 34.97671509 C6.65601195 27.47734868 4.6773704 20.00989709 2.50296021 12.58668518 C1.29329145 8.3850945 0.52687359 4.32729049 0 0 Z " fill="#FAFBFD" transform="translate(304,95)"/>
<path d="M0 0 C13.86 0 27.72 0 42 0 C39.73138186 10.20878161 37.50190183 19.9236528 34.48828125 29.84375 C32.06857356 38.03197339 30.04091508 46.33488826 27.94238281 54.61010742 C25.77530087 63.12093749 23.45993524 71.57001311 21 80 C18.2369316 77.2369316 17.85253302 74.11325138 16.9765625 70.421875 C16.78911469 69.65885071 16.60166687 68.89582642 16.40853882 68.10968018 C15.80733827 65.65802955 15.21566719 63.2042077 14.625 60.75 C13.85008548 57.55637389 13.07106191 54.36377342 12.2890625 51.171875 C12.09691162 50.3865892 11.90476074 49.60130341 11.70678711 48.79222107 C10.25009623 42.89041519 8.63417468 37.05277951 6.93310547 31.21630859 C5.46144866 26.14367469 4.09801698 21.04414597 2.75 15.9375 C2.481875 14.94556641 2.21375 13.95363281 1.9375 12.93164062 C1.68484375 11.97322266 1.4321875 11.01480469 1.171875 10.02734375 C0.9459668 9.17906006 0.72005859 8.33077637 0.48730469 7.45678711 C0 5 0 5 0 0 Z " fill="#FBFCFD" transform="translate(380,382)"/>
<path d="M0 0 C7.08764805 1.02564237 13.86297661 2.76070583 20.703125 4.83740234 C27.24373434 6.81110426 33.8323461 8.56868826 40.4375 10.3125 C53.74015982 13.84147534 66.87737452 17.85678174 80 22 C79.07286953 23.72533483 78.14254656 25.4489543 77.2109375 27.171875 C76.69321777 28.1319043 76.17549805 29.09193359 75.64208984 30.08105469 C74.06745758 32.88008879 72.38810362 35.56664099 70.625 38.25 C66.29580576 44.92296383 62.66394249 51.9481003 59 59 C52.23282648 53.44440862 46.11856756 47.26412305 39.94140625 41.07421875 C38.78570396 39.91919096 37.62985333 38.76431157 36.47386169 37.60957336 C34.06598994 35.20316815 31.65991717 32.79498261 29.25512695 30.38549805 C26.16593664 27.2905724 23.07222644 24.20020968 19.97718906 21.11113262 C17.59660076 18.7341454 15.21838382 16.35479717 12.8408947 13.97471046 C11.70008769 12.83323491 10.55853336 11.69250575 9.41623116 10.55252647 C7.82918069 8.96799923 6.24534308 7.38033081 4.66235352 5.79174805 C3.75969254 4.88829147 2.85703156 3.9848349 1.92701721 3.05400085 C0 1 0 1 0 0 Z " fill="#FBFCFD" transform="translate(228,167)"/>
<path d="M0 0 C1.09353188 3.28059565 0.94134339 4.04676397 0.05859375 7.2578125 C-0.31217285 8.62691772 -0.31217285 8.62691772 -0.69042969 10.02368164 C-0.97821289 11.0471167 -1.26599609 12.07055176 -1.5625 13.125 C-1.86188477 14.2070874 -2.16126953 15.2891748 -2.46972656 16.40405273 C-3.19098958 18.99745313 -3.91659366 21.58935226 -4.64697266 24.18017578 C-5.66258044 27.78760619 -6.66450651 31.39864518 -7.66162109 35.01123047 C-9.19645485 40.57047166 -10.74568888 46.12554341 -12.30343628 51.67840576 C-12.93562418 53.93856364 -13.56380585 56.19984585 -14.1880188 58.46221924 C-15.07683393 61.67755489 -15.98172174 64.88795011 -16.890625 68.09765625 C-17.15920822 69.081931 -17.42779144 70.06620575 -17.70451355 71.08030701 C-17.96219009 71.97814407 -18.21986664 72.87598114 -18.48535156 73.80102539 C-18.70628479 74.59086319 -18.92721802 75.38070099 -19.15484619 76.19447327 C-19.43374695 76.79029709 -19.71264771 77.38612091 -20 78 C-23 79 -23 79 -24.73901367 78.24658203 C-25.37556885 77.83778809 -26.01212402 77.42899414 -26.66796875 77.0078125 C-27.38936035 76.5538208 -28.11075195 76.0998291 -28.85400391 75.63208008 C-29.62405762 75.13474365 -30.39411133 74.63740723 -31.1875 74.125 C-32.8018607 73.10825214 -34.41778148 72.09397764 -36.03515625 71.08203125 C-37.26709717 70.30980225 -37.26709717 70.30980225 -38.52392578 69.52197266 C-42.33278786 67.18077307 -46.21890726 64.98645707 -50.125 62.8125 C-50.81746826 62.42658691 -51.50993652 62.04067383 -52.22338867 61.64306641 C-53.81400747 60.75918592 -55.4067418 59.87911386 -57 59 C-55.40752446 55.06532451 -52.69337631 52.42422224 -49.72412109 49.49707031 C-49.18738266 48.96003983 -48.65064423 48.42300934 -48.09764099 47.8697052 C-46.32760717 46.10106141 -44.55060143 44.33960176 -42.7734375 42.578125 C-41.54274656 41.35116534 -40.3124973 40.12376251 -39.08267212 38.89593506 C-35.84843484 35.66932512 -32.60823592 32.44876709 -29.36676025 29.22943115 C-26.05859466 25.94174328 -22.75610054 22.64836932 -19.453125 19.35546875 C-12.97428921 12.89806702 -6.48914131 6.44704432 0 0 Z " fill="#FAFCFD" transform="translate(499,99)"/>
<path d="M0 0 C19.52633542 4.59443186 19.52633542 4.59443186 28.6328125 7.09375 C29.63859344 7.3671521 30.64437439 7.6405542 31.68063354 7.92224121 C34.82950239 8.77878098 37.97728468 9.63923197 41.125 10.5 C44.27228922 11.3577345 47.41980134 12.21464761 50.56732178 13.0715332 C52.58813183 13.62178902 54.60884542 14.17239923 56.62945557 14.72338867 C64.41202356 16.844585 72.20218687 18.93555197 80 21 C76.91491756 23.05672163 74.7233279 23.73640805 71.15844727 24.64819336 C69.95611954 24.95869125 68.75379181 25.26918915 67.51502991 25.58909607 C66.19885472 25.9228076 64.88264595 26.25638673 63.56640625 26.58984375 C62.20926011 26.93803129 60.85224192 27.28671789 59.49534607 27.63587952 C55.91573258 28.5555188 52.33437446 29.46817824 48.75262451 30.37945557 C45.14972928 31.29747444 41.54859378 32.22234114 37.94726562 33.14648438 C31.44889946 34.81252822 24.94996781 36.47626697 18.447052 38.1244812 C16.1394845 38.71058165 13.83322991 39.30187449 11.52828979 39.89822388 C9.91701706 40.31127274 9.91701706 40.31127274 8.27319336 40.73266602 C7.32625107 40.97751236 6.37930878 41.2223587 5.40367126 41.47462463 C3 42 3 42 0 42 C0 28.14 0 14.28 0 0 Z " fill="#FBFCFE" transform="translate(516,245)"/>
<path d="M0 0 C0 3 0 3 -2.484375 5.7421875 C-3.56555695 6.79407634 -4.6544674 7.83806565 -5.75 8.875 C-9.45179544 12.42624395 -12.8109926 15.96744871 -16 20 C-17.07332162 20.99275753 -18.17850143 21.95215979 -19.3125 22.875 C-23.63893052 26.57287363 -27.66180582 30.5441297 -31.6875 34.5625 C-32.32921143 35.19978027 -32.97092285 35.83706055 -33.63208008 36.49365234 C-36.49108944 39.36120272 -39.21320175 42.20959449 -41.70703125 45.40234375 C-44.07496895 48.08493075 -44.68687683 48.39749516 -48 49 C-43.06002739 43.03881703 -37.71470138 37.58513698 -32.2265625 32.12890625 C-31.3028183 31.206577 -30.3790741 30.28424774 -29.42733765 29.33396912 C-26.99324569 26.90366186 -24.55616403 24.47637504 -22.1184082 22.04974365 C-19.6226689 19.56430636 -17.12982292 17.07597068 -14.63671875 14.58789062 C-9.7606114 9.72244904 -4.88133369 4.86019802 0 0 Z " fill="#2B2F73" transform="translate(357,379)"/>
<path d="M0 0 C0.66 0 1.32 0 2 0 C2 4.95 2 9.9 2 15 C1.67 15 1.34 15 1 15 C1 12.69 1 10.38 1 8 C0.01 8 -0.98 8 -2 8 C-2.20086443 4.28400809 -2.1519437 3.22791555 0 0 Z " fill="#4E5396" transform="translate(514,272)"/>
<path d="M0 0 C1.79323253 0.28187936 3.58457126 0.5758281 5.375 0.875 C6.37273437 1.03742188 7.37046875 1.19984375 8.3984375 1.3671875 C11 2 11 2 13 4 C11.8553125 4.2165625 11.8553125 4.2165625 10.6875 4.4375 C7.91827092 4.9632594 7.91827092 4.9632594 5 6 C3.35 4.02 1.7 2.04 0 0 Z " fill="#E6ECF7" transform="translate(228,167)"/>
<path d="M0 0 C-2.97 2.475 -2.97 2.475 -6 5 C-7.32 4.34 -8.64 3.68 -10 3 C-10 2.34 -10 1.68 -10 1 C-3.71428571 -1.42857143 -3.71428571 -1.42857143 0 0 Z " fill="#ECF2F9" transform="translate(568,168)"/>
<path d="M0 0 C2.31 1.98 4.62 3.96 7 6 C3.29847322 6.92538169 2.36541838 7.08174162 -1 6 C-0.67 4.02 -0.34 2.04 0 0 Z " fill="#E2E8F8" transform="translate(563,354)"/>
<path d="M0 0 C1 2 1 2 0.1875 4.9375 C-1 8 -1 8 -3 11 C-3.99 11 -4.98 11 -6 11 C-4.54955729 6.89041233 -2.48889248 3.56741255 0 0 Z " fill="#3A3C80" transform="translate(304,195)"/>
<path d="M0 0 C-1.38188453 3.21043882 -2.92421903 5.04936365 -5.625 7.25 C-6.57246094 8.03117188 -6.57246094 8.03117188 -7.5390625 8.828125 C-8.02117188 9.21484375 -8.50328125 9.6015625 -9 10 C-9.66 9.67 -10.32 9.34 -11 9 C-9.54782324 7.49403892 -8.08807139 5.99537896 -6.625 4.5 C-5.40683594 3.24703125 -5.40683594 3.24703125 -4.1640625 1.96875 C-2 0 -2 0 0 0 Z " fill="#3B3B81" transform="translate(561,176)"/>
<path d="M0 0 C-0.66 2.97 -1.32 5.94 -2 9 C-4.5654594 6.4345406 -4.54046087 4.52313332 -5 1 C-2 0 -2 0 0 0 Z " fill="#DEE5F4" transform="translate(403,453)"/>
<path d="M0 0 C-0.33 0.66 -0.66 1.32 -1 2 C-5.37330544 2.72888424 -9.5616278 3.13869913 -14 3 C-9.5718927 0.52025991 -4.9510693 -1.65035643 0 0 Z " fill="#494A8C" transform="translate(545,281)"/>
<path d="M0 0 C3.8063457 0.67170806 7.35206816 1.72746564 11 3 C11 3.99 11 4.98 11 6 C6.95743617 4.77782954 3.50711041 3.37245704 0 1 C0 0.67 0 0.34 0 0 Z " fill="#3C3F85" transform="translate(347,369)"/>
<path d="M0 0 C0.66 0 1.32 0 2 0 C1.67 1.65 1.34 3.3 1 5 C0.01 5.33 -0.98 5.66 -2 6 C-1.67 6.99 -1.34 7.98 -1 9 C-2.32 9.33 -3.64 9.66 -5 10 C-3.35 6.7 -1.7 3.4 0 0 Z " fill="#3D3F84" transform="translate(292,215)"/>
<path d="M0 0 C0.66 0.33 1.32 0.66 2 1 C1.8125 2.8125 1.8125 2.8125 1 5 C-1.4375 6.8125 -1.4375 6.8125 -4 8 C-4.66 7.67 -5.32 7.34 -6 7 C-4.02 4.69 -2.04 2.38 0 0 Z " fill="#3E4288" transform="translate(482,326)"/>
<path d="M0 0 C0.99 0.33 1.98 0.66 3 1 C3.6875 3.3125 3.6875 3.3125 4 6 C3.01 6.99 2.02 7.98 1 9 C0.67 6.03 0.34 3.06 0 0 Z " fill="#2D327A" transform="translate(500,244)"/>
<path d="M0 0 C-0.33 0.99 -0.66 1.98 -1 3 C-3.64 3.33 -6.28 3.66 -9 4 C-4.5 0 -4.5 0 0 0 Z " fill="#3B3E84" transform="translate(363,155)"/>
<path d="M0 0 C0.66 0.66 1.32 1.32 2 2 C-0.97 4.475 -0.97 4.475 -4 7 C-3.6875 4.625 -3.6875 4.625 -3 2 C-2.01 1.34 -1.02 0.68 0 0 Z " fill="#DDE4F2" transform="translate(472,335)"/>
<path d="M0 0 C0.66 0.33 1.32 0.66 2 1 C1.3125 2.9375 1.3125 2.9375 0 5 C-2.625 5.75 -2.625 5.75 -5 6 C-3.35 4.02 -1.7 2.04 0 0 Z " fill="#4C4F8C" transform="translate(529,205)"/>
<path d="M0 0 C0.66 0.33 1.32 0.66 2 1 C0.25 3.0625 0.25 3.0625 -2 5 C-4.25 4.75 -4.25 4.75 -6 4 C-4.03617993 2.49440461 -2.21736634 1.10868317 0 0 Z " fill="#EEF4F9" transform="translate(358,171)"/>
<path d="M0 0 C0.33 1.32 0.66 2.64 1 4 C0.34 4 -0.32 4 -1 4 C-1.33 4.66 -1.66 5.32 -2 6 C-2.99 4.68 -3.98 3.36 -5 2 C-2 0 -2 0 0 0 Z " fill="#EAF2F8" transform="translate(477,354)"/>
<path d="M0 0 C0.53625 0.2475 1.0725 0.495 1.625 0.75 C-3.79038462 4.81153846 -3.79038462 4.81153846 -6.75 4.5 C-7.28625 4.2525 -7.8225 4.005 -8.375 3.75 C-2.95961538 -0.31153846 -2.95961538 -0.31153846 0 0 Z " fill="#3E3E84" transform="translate(459.375,350.25)"/>
</svg>
