<?xml version="1.0" encoding="UTF-8"?>
<svg version="1.1" xmlns="http://www.w3.org/2000/svg" width="1600" height="1600">
<path d="M0 0 C484.44 0 968.88 0 1468 0 C1468 308.22 1468 616.44 1468 934 C983.56 934 499.12 934 0 934 C0 625.78 0 317.56 0 0 Z " fill="#311B90" transform="translate(66,333)"/>
<path d="M0 0 C484.44 0 968.88 0 1468 0 C1468 110.22 1468 220.44 1468 334 C983.56 334 499.12 334 0 334 C0 223.78 0 113.56 0 0 Z " fill="#D50202" transform="translate(66,933)"/>
<path d="M0 0 C484.44 0 968.88 0 1468 0 C1468 22.11 1468 44.22 1468 67 C983.56 67 499.12 67 0 67 C0 44.89 0 22.78 0 0 Z " fill="#EBEEF0" transform="translate(66,1200)"/>
<path d="M0 0 C484.44 0 968.88 0 1468 0 C1468 22.11 1468 44.22 1468 67 C983.56 67 499.12 67 0 67 C0 44.89 0 22.78 0 0 Z " fill="#EBEDEF" transform="translate(66,933)"/>
<path d="M0 0 C484.44 0 968.88 0 1468 0 C1468 21.78 1468 43.56 1468 66 C983.56 66 499.12 66 0 66 C0 44.22 0 22.44 0 0 Z " fill="#D40000" transform="translate(66,1134)"/>
<path d="M0 0 C484.44 0 968.88 0 1468 0 C1468 21.78 1468 43.56 1468 66 C983.56 66 499.12 66 0 66 C0 44.22 0 22.44 0 0 Z " fill="#D40000" transform="translate(66,867)"/>
<path d="M0 0 C483.78 0 967.56 0 1466 0 C1466 21.78 1466 43.56 1466 66 C982.22 66 498.44 66 0 66 C0 44.22 0 22.44 0 0 Z " fill="#ECEFF1" transform="translate(67,1067)"/>
<path d="M0 0 C198.33 0 396.66 0 601 0 C601 66 601 132 601 200 C402.67 200 204.34 200 0 200 C0 177.89 0 155.78 0 133 C198 133 396 133 600 133 C600 111.22 600 89.44 600 67 C402 67 204 67 0 67 C0 44.89 0 22.78 0 0 Z " fill="#D50101" transform="translate(933,600)"/>
<path d="M0 0 C198.33 0 396.66 0 601 0 C601 23.76 601 47.52 601 72 C402.67 72 204.34 72 0 72 C0 48.24 0 24.48 0 0 Z " fill="#D40000" transform="translate(933,333)"/>
<path d="M0 0 C1.58121783 2.88699555 2.43561568 5.47529768 3.04980469 8.70385742 C3.32112717 10.10685341 3.32112717 10.10685341 3.59793091 11.53819275 C3.78733246 12.55039383 3.97673401 13.56259491 4.171875 14.60546875 C4.37505341 15.66613052 4.57823181 16.7267923 4.78756714 17.81959534 C5.44763641 21.27446513 6.09900624 24.73090967 6.75 28.1875 C7.19933761 30.55052601 7.64904571 32.91348159 8.09912109 35.27636719 C11.49867191 53.16609406 14.81069574 71.07158228 18 89 C22.74724435 84.57166842 26.54016613 79.55261746 30.4375 74.375 C31.49420898 72.97991211 31.49420898 72.97991211 32.57226562 71.55664062 C37.09456253 65.57160618 41.56223931 59.54787623 46 53.5 C51.13514733 46.50171017 56.32141705 39.54438033 61.5625 32.625 C62.56313477 31.2956543 62.56313477 31.2956543 63.58398438 29.93945312 C66.83423809 25.6641957 70.07032196 21.66568816 74 18 C70.96176271 30.66246721 67.47084792 43.18337348 63.92773438 55.71240234 C62.71573079 60.0073603 61.51581177 64.30565017 60.31591797 68.60400391 C56.9246357 80.74965799 53.47943627 92.87932639 50 105 C60.97978151 99.54004114 71.91640326 93.99985058 82.82592773 88.40087891 C85.2992765 87.13178508 87.77361946 85.86464543 90.24804688 84.59765625 C98.6161842 80.30857051 106.96753585 75.98864894 115.29296875 71.6171875 C116.06441727 71.21291534 116.83586578 70.80864319 117.63069153 70.39212036 C121.11659192 68.55635728 124.54371123 66.68127637 127.91918945 64.64892578 C129.44419067 63.83270752 129.44419067 63.83270752 131 63 C131.66 63.33 132.32 63.66 133 64 C131.82244141 65.2684375 131.82244141 65.2684375 130.62109375 66.5625 C125.58258922 71.99926719 120.55771899 77.43694277 115.70703125 83.04296875 C113.66366569 85.3855915 111.58319141 87.69273422 109.5 90 C106.82951656 92.95869751 104.17701942 95.92926472 101.5625 98.9375 C97.91062947 103.13164365 94.15733816 107.23094292 90.41015625 111.33984375 C87.87435901 114.13867345 85.38386785 116.97230357 82.90820312 119.82421875 C80.72154714 122.31749896 78.50554621 124.78281701 76.28515625 127.24609375 C75.48086182 128.13868896 74.67656738 129.03128418 73.84790039 129.95092773 C73.23809326 130.62712158 72.62828613 131.30331543 72 132 C72.70157227 131.97494385 73.40314453 131.9498877 74.12597656 131.92407227 C75.12081055 131.88854248 76.11564453 131.8530127 77.140625 131.81640625 C78.25896729 131.77636475 79.37730957 131.73632324 80.52954102 131.69506836 C83.05083392 131.605229 85.5721567 131.51622494 88.09350586 131.42797852 C94.35100487 131.20788104 100.60759551 130.97876502 106.86328125 130.7109375 C125.58159789 129.93328149 144.26972366 129.89263951 163 130 C159.26029652 133.23427085 154.98788848 134.84852133 150.46875 136.703125 C149.61646317 137.05821136 148.76417633 137.41329773 147.88606262 137.77914429 C145.09288379 138.94141296 142.29648713 140.09571682 139.5 141.25 C137.57163504 142.05073106 135.64349569 142.85200565 133.71557617 143.65380859 C129.76518022 145.2958373 125.81353955 146.93481394 121.86083984 148.57128906 C116.28525854 150.8803554 110.71406194 153.19982014 105.14453125 155.5234375 C104.30328705 155.87438477 103.46204285 156.22533203 102.5953064 156.58691406 C100.96001335 157.26914437 99.32472869 157.95139479 97.68945312 158.63366699 C93.91474852 160.20794678 90.1390792 161.77990717 86.36328125 163.3515625 C85.71228958 163.62253754 85.06129791 163.89351257 84.39057922 164.17269897 C82.92707161 164.78184447 81.46353908 165.39093011 80 166 C108.26194958 178.1728394 136.59421467 190.16672226 165 202 C165 202.33 165 202.66 165 203 C157.99306466 202.88118034 150.98625277 202.75639482 143.97949219 202.62768555 C141.6015863 202.58468224 139.22365634 202.54298705 136.84570312 202.50268555 C114.04311622 202.11465833 114.04311622 202.11465833 103.09521484 201.20727539 C97.2764288 200.81761225 91.45392418 200.89577312 85.625 200.9375 C84.40039062 200.94201172 83.17578125 200.94652344 81.9140625 200.95117188 C78.94265356 200.96277894 75.97135557 200.97910213 73 201 C73.71285156 201.7734375 74.42570313 202.546875 75.16015625 203.34375 C79.9186522 208.51530405 84.65313899 213.69811721 89.2578125 219.0078125 C91.31500399 221.36020635 93.40596915 223.68034966 95.5 226 C98.76390848 229.61676345 101.98790949 233.26389608 105.1875 236.9375 C107.27211164 239.30964429 109.38428644 241.65556065 111.5 244 C114.75665583 247.60872673 117.97889527 251.24267665 121.16015625 254.91796875 C122.56152132 256.50380225 123.99134211 258.06453912 125.43359375 259.61328125 C126.67302734 260.94939453 126.67302734 260.94939453 127.9375 262.3125 C128.70964844 263.13363281 129.48179687 263.95476562 130.27734375 264.80078125 C132 267 132 267 132 270 C131.43829102 269.68885254 130.87658203 269.37770508 130.29785156 269.05712891 C119.41046855 263.03925493 108.48387718 257.15993139 97.33081055 251.64868164 C89.3239628 247.68678296 81.42963678 243.5251238 73.53710938 239.34130859 C68.8029563 236.83847593 64.05710831 234.35793806 59.3125 231.875 C58.38445557 231.389104 57.45641113 230.90320801 56.50024414 230.40258789 C54.33359419 229.26820436 52.16684654 228.13400796 50 227 C50.36351562 228.24910156 50.72703125 229.49820313 51.1015625 230.78515625 C53.90900596 240.49148194 56.60915728 250.21374345 59.125 260 C60.8920418 266.87001013 62.77583673 273.65777328 64.9296875 280.41796875 C68.33937181 291.82921151 71.12789529 303.44319772 74 315 C69.61288392 310.89776159 66.19127212 306.36523786 62.6875 301.5 C57.54251427 294.43319463 52.31747178 287.43793631 47 280.5 C40.59791928 272.1364043 34.31052118 263.6955483 28.0859375 255.19921875 C25.08863495 251.1091298 22.05129782 247.04991683 19 243 C16.57964095 246.63053858 16.07381432 250.04616353 15.3359375 254.2578125 C15.10609665 255.51785851 15.10609665 255.51785851 14.87161255 256.80335999 C14.54009417 258.62417578 14.21167358 260.4455577 13.88598633 262.26742554 C13.01878617 267.11704458 12.12916771 271.96256054 11.2421875 276.80859375 C11.05996643 277.80750137 10.87774536 278.806409 10.69000244 279.83558655 C8.7137793 290.63658063 6.61545228 301.41304968 4.5 312.1875 C4.3226532 313.09220032 4.1453064 313.99690063 3.96258545 314.92901611 C2.97767952 319.95319587 1.99021949 324.97686488 1 330 C0.34 330 -0.32 330 -1 330 C-1.20044922 328.88181885 -1.40089844 327.7636377 -1.60742188 326.61157227 C-5.4218209 305.36181593 -9.30497109 284.12795078 -13.4375 262.9375 C-13.61039551 262.04765411 -13.78329102 261.15780823 -13.96142578 260.24099731 C-14.44964694 257.73178189 -14.94093037 255.22319033 -15.43359375 252.71484375 C-15.57804428 251.97309906 -15.72249481 251.23135437 -15.87132263 250.46713257 C-16.44451517 247.56957255 -17.06467278 244.80598165 -18 242 C-18.3403125 242.46559326 -18.680625 242.93118652 -19.03125 243.41088867 C-26.58828822 253.73775224 -34.24356427 263.98021273 -42.02197266 274.14135742 C-47.12743971 280.82320385 -52.13155882 287.57408287 -57.10205078 294.35668945 C-61.96669267 300.98456952 -66.94685798 307.5147463 -72 314 C-73.33177094 310.31134496 -72.64853924 308.00357166 -71.5 304.3125 C-71.12488281 303.06726563 -70.74976563 301.82203125 -70.36328125 300.5390625 C-70.14752441 299.82782227 -69.93176758 299.11658203 -69.70947266 298.38378906 C-68.30640027 293.66954311 -67.00640565 288.92583132 -65.6875 284.1875 C-65.07961933 282.01426913 -64.47154306 279.84109297 -63.86328125 277.66796875 C-62.6293734 273.25449973 -61.3979345 268.84035035 -60.16796875 264.42578125 C-59.57051406 262.28379794 -58.97286082 260.14186999 -58.375 258 C-58.08641113 256.96568848 -57.79782227 255.93137695 -57.50048828 254.86572266 C-55.5424082 247.87226036 -53.52796649 240.89753492 -51.42138672 233.94726562 C-50.3569887 230.53373192 -50.3569887 230.53373192 -50 227 C-55.20701632 229.66380238 -60.41326943 232.3290892 -65.61889648 234.99560547 C-67.38041909 235.89768131 -69.14213016 236.79938924 -70.90405273 237.70068359 C-85.46197021 245.14814638 -99.97193213 252.68188186 -114.37890625 260.41796875 C-115.6947168 261.12083008 -115.6947168 261.12083008 -117.03710938 261.83789062 C-118.7902285 262.77478568 -120.54000763 263.71794679 -122.28710938 264.66601562 C-123.57004883 265.34760742 -123.57004883 265.34760742 -124.87890625 266.04296875 C-125.6272876 266.44539795 -126.37566895 266.84782715 -127.14672852 267.26245117 C-127.75830811 267.50584229 -128.3698877 267.7492334 -129 268 C-129.66 267.67 -130.32 267.34 -131 267 C-127.20502898 262.63151246 -123.37699282 258.29594745 -119.5 254 C-116.81016569 251.01937279 -114.13689636 248.02754767 -111.5 245 C-106.62856797 239.41020011 -101.6410485 233.92465102 -96.671875 228.421875 C-92.68910917 224.00561085 -88.73448223 219.56939291 -84.83203125 215.08203125 C-81.9011905 211.75124635 -78.90771052 208.4771284 -75.91796875 205.19921875 C-73.87480508 202.95177481 -73.87480508 202.95177481 -72 200 C-77.85425742 200.14231799 -83.708406 200.28861374 -89.5625 200.4375 C-90.43478241 200.45956512 -91.30706482 200.48163025 -92.20578003 200.50436401 C-102.16427223 200.75866878 -112.11314673 201.05478574 -122.0625 201.5625 C-135.36672351 202.23058871 -148.68324363 202.09199587 -162 202 C-158.88173741 198.59685231 -155.21405712 197.21030247 -151.00390625 195.515625 C-149.79021362 195.0163575 -149.79021362 195.0163575 -148.55200195 194.50700378 C-145.89163986 193.41434379 -143.22715097 192.33215368 -140.5625 191.25 C-138.72290919 190.49694838 -136.88363803 189.74311544 -135.04467773 188.98852539 C-132.21071022 187.82578076 -129.3765168 186.66362381 -126.54115295 185.50428772 C-120.12893273 182.88127257 -113.73145486 180.22509855 -107.34375 177.54296875 C-106.50988266 177.19321991 -105.67601532 176.84347107 -104.81687927 176.48312378 C-101.60990387 175.1377017 -98.40309765 173.79191332 -95.19851685 172.4407959 C-93.00995677 171.51856937 -90.81964014 170.60064178 -88.62890625 169.68359375 C-87.65836304 169.27236519 -87.65836304 169.27236519 -86.66821289 168.85282898 C-82.22752019 167 -82.22752019 167 -80 167 C-80 166.34 -80 165.68 -80 165 C-81.16402344 164.64164063 -82.32804688 164.28328125 -83.52734375 163.9140625 C-89.95986326 161.76530331 -96.14130935 159.02945787 -102.35702515 156.33206177 C-106.1905909 154.66849294 -110.02938178 153.0170388 -113.8671875 151.36328125 C-115.07869728 150.84056892 -115.07869728 150.84056892 -116.31468201 150.30729675 C-126.2559747 146.02072883 -136.22204727 141.79251389 -146.1875 137.5625 C-147.97535482 136.80325332 -149.76319693 136.04397672 -151.55102539 135.28466797 C-155.70043715 133.52253095 -159.85012848 131.76105398 -164 130 C-164 129.67 -164 129.34 -164 129 C-149.57792427 128.85621592 -135.2194371 129.30409252 -120.8125 129.9375 C-118.74155218 130.02576031 -116.67058862 130.11365194 -114.59960938 130.20117188 C-110.48900529 130.37541877 -106.37850132 130.55178869 -102.26806641 130.72998047 C-95.66207125 131.01573199 -89.0556896 131.29189966 -82.44921875 131.56640625 C-80.87609673 131.63177834 -80.87609673 131.63177834 -79.27119446 131.69847107 C-76.84746786 131.79909914 -74.42373688 131.8996199 -72 132 C-77.81154276 124.72196235 -83.86485307 117.80639308 -90.21484375 111 C-92.97346339 108.04123978 -95.64611326 105.01604915 -98.29296875 101.95703125 C-100.33633431 99.6144085 -102.41680859 97.30726578 -104.5 95 C-107.76390848 91.38323655 -110.98790949 87.73610392 -114.1875 84.0625 C-117.01991589 80.83940606 -119.90263906 77.66191281 -122.77734375 74.4765625 C-125.88525101 71.0136219 -128.94850192 67.51265696 -132 64 C-131.34 63.67 -130.68 63.34 -130 63 C-127.67775045 64.01251846 -125.48756928 65.08522574 -123.25390625 66.26953125 C-122.57585434 66.62111801 -121.89780243 66.97270477 -121.19920349 67.33494568 C-118.98292386 68.48654613 -116.77275694 69.64938823 -114.5625 70.8125 C-113.0374615 71.60777197 -111.51206977 72.40236692 -109.98632812 73.19628906 C-105.65235971 75.45435081 -101.32559053 77.72594286 -97 80 C-95.15496109 80.96747305 -93.30991161 81.93492592 -91.46484375 82.90234375 C-88.54672013 84.43493673 -85.63197951 85.97375384 -82.71875 87.515625 C-78.95724347 89.50252307 -75.18326207 91.46461789 -71.40625 93.421875 C-70.26285156 94.01452148 -69.11945313 94.60716797 -67.94140625 95.21777344 C-65.68956085 96.3839533 -63.43698482 97.54872368 -61.18359375 98.71191406 C-60.16394531 99.24010742 -59.14429688 99.76830078 -58.09375 100.3125 C-56.72766602 101.01826172 -56.72766602 101.01826172 -55.33398438 101.73828125 C-53 103 -53 103 -50 105 C-51.54527319 96.29027837 -53.91342353 87.87792144 -56.32666016 79.37890625 C-57.3990949 75.58999976 -58.44871867 71.79481859 -59.5 68 C-59.91787647 66.49606811 -60.33584533 64.99216188 -60.75390625 63.48828125 C-61.57633437 60.52792523 -62.39649498 57.56695491 -63.21484375 54.60546875 C-63.4164209 53.877229 -63.61799805 53.14898926 -63.82568359 52.39868164 C-64.23187013 50.93067226 -64.63715136 49.46241208 -65.04150391 47.99389648 C-66.215217 43.75157675 -67.43072448 39.52435687 -68.68359375 35.3046875 C-69.10523804 33.87153198 -69.10523804 33.87153198 -69.53540039 32.40942383 C-70.08597272 30.54253696 -70.64351763 28.6776892 -71.20874023 26.81518555 C-71.45696533 25.96996338 -71.70519043 25.12474121 -71.9609375 24.25390625 C-72.29810791 23.12964233 -72.29810791 23.12964233 -72.64208984 21.98266602 C-73 20 -73 20 -72 17 C-71.6596875 17.46559326 -71.319375 17.93118652 -70.96875 18.41088867 C-63.41171178 28.73775224 -55.75643573 38.98021273 -47.97802734 49.14135742 C-42.87256029 55.82320385 -37.86844118 62.57408287 -32.89794922 69.35668945 C-28.03304283 75.98492989 -23.04491504 82.50799777 -18 89 C-15.01558483 77.79019734 -12.67923086 66.53736386 -10.62084961 55.1234436 C-9.77137499 50.4148928 -8.90490657 45.70946987 -8.0390625 41.00390625 C-7.86751648 40.06989487 -7.69597046 39.13588348 -7.51922607 38.17356873 C-5.92716737 29.53678721 -4.23810988 20.92095931 -2.5 12.3125 C-2.11739014 10.41733643 -2.11739014 10.41733643 -1.72705078 8.48388672 C-1.15379459 5.65542055 -0.5784762 2.8274024 0 0 Z " fill="#FCD301" transform="translate(633,434)"/>
<path d="M0 0 C198.33 0 396.66 0 601 0 C601 22.11 601 44.22 601 67 C402.67 67 204.34 67 0 67 C0 44.89 0 22.78 0 0 Z " fill="#EBEDEF" transform="translate(933,800)"/>
<path d="M0 0 C198.33 0 396.66 0 601 0 C601 22.11 601 44.22 601 67 C402.67 67 204.34 67 0 67 C0 44.89 0 22.78 0 0 Z " fill="#EBEDEF" transform="translate(933,533)"/>
<path d="M0 0 C198.33 0 396.66 0 601 0 C601 21.78 601 43.56 601 66 C402.67 66 204.34 66 0 66 C0 44.22 0 22.44 0 0 Z " fill="#D40000" transform="translate(933,467)"/>
<path d="M0 0 C198 0 396 0 600 0 C600 21.78 600 43.56 600 66 C402 66 204 66 0 66 C0 44.22 0 22.44 0 0 Z " fill="#EBEEF0" transform="translate(933,667)"/>
<path d="M0 0 C198.33 0 396.66 0 601 0 C601 20.46 601 40.92 601 62 C402.67 62 204.34 62 0 62 C0 41.54 0 21.08 0 0 Z " fill="#EBEDEF" transform="translate(933,405)"/>
<path d="M0 0 C0.82226074 0.1129541 1.64452148 0.2259082 2.49169922 0.34228516 C30.33803673 4.25155299 58.96519801 14.70656596 82 31 C78.51032755 32.74483622 74.73232683 30.41773117 71.1875 29.25 C53.85324811 23.91092072 37.23759247 22.72308333 19.1875 22.625 C18.35842133 22.6169635 17.52934265 22.608927 16.67514038 22.60064697 C5.41560496 22.51792488 -5.01617697 23.54200448 -16 26 C-17.53751054 26.30853946 -19.07521785 26.61610345 -20.61328125 26.921875 C-37.37353296 30.67390601 -52.90637734 36.85078682 -68 45 C-68.90226318 45.48122314 -68.90226318 45.48122314 -69.82275391 45.97216797 C-82.92075428 53.00515481 -94.6182534 61.31011599 -105.390625 71.546875 C-107.43727744 73.4709734 -109.49579196 75.25065505 -111.6875 77 C-116.46393355 81.04958497 -120.14898223 86.09641272 -124 91 C-124.81855469 92.00289063 -125.63710938 93.00578125 -126.48046875 94.0390625 C-133.03215919 102.1558295 -138.22126068 110.73997129 -143 120 C-143.53004639 121.0211792 -143.53004639 121.0211792 -144.07080078 122.06298828 C-149.66689385 132.98918568 -153.87904683 144.12864505 -157 156 C-157.21172852 156.78810059 -157.42345703 157.57620117 -157.64160156 158.38818359 C-163.78261519 182.35370824 -163.83158497 211.20383227 -157 235 C-156.55927287 236.66780425 -156.11919027 238.33577893 -155.6796875 240.00390625 C-152.53524957 251.50719869 -148.23312343 262.29656481 -143 273 C-142.51660156 273.99555908 -142.51660156 273.99555908 -142.0234375 275.01123047 C-123.56623498 312.53524839 -90.61205176 341.60209554 -53 359 C-51.87464844 359.53238281 -50.74929688 360.06476563 -49.58984375 360.61328125 C-30.62932251 369.19541192 -9.82192619 374.43260911 11 375 C12.4535791 375.04084717 12.4535791 375.04084717 13.93652344 375.08251953 C33.50247549 375.54643041 51.15746466 373.99865336 69.94921875 368.53833008 C75.69532201 366.89844067 75.69532201 366.89844067 79 368 C61.07872639 378.26129149 43.1491635 387.06278775 23 392 C22.32291992 392.16983398 21.64583984 392.33966797 20.94824219 392.51464844 C18.71917776 393.06816107 16.48596302 393.60008961 14.25 394.125 C13.59628418 394.28387695 12.94256836 394.44275391 12.26904297 394.60644531 C-1.97225678 397.80409002 -16.64457659 398.41439727 -31.1875 398.375 C-31.98948822 398.37412384 -32.79147644 398.37324768 -33.61776733 398.37234497 C-47.08713054 398.32411434 -59.89670918 397.31543291 -73 394 C-73.97146973 393.75862305 -74.94293945 393.51724609 -75.94384766 393.26855469 C-127.9888631 379.99644971 -173.24426388 347.15016484 -201.03955078 301.00537109 C-210.1119409 285.45222705 -216.90958433 269.25527335 -222 252 C-222.2570874 251.13689209 -222.5141748 250.27378418 -222.77905273 249.38452148 C-237.02908199 199.61931073 -228.72821462 145.52016519 -204.0625 100.5625 C-176.66861201 51.99746753 -130.98464412 18.68430212 -77.74609375 3.7890625 C-52.43707768 -2.90377968 -25.82092113 -3.84682351 0 0 Z " fill="#FCD300" transform="translate(429,404)"/>
</svg>
