<?xml version="1.0" encoding="UTF-8"?>
<svg version="1.1" xmlns="http://www.w3.org/2000/svg" width="1600" height="1067">
<path d="M0 0 C528 0 1056 0 1600 0 C1600 352.11 1600 704.22 1600 1067 C1072 1067 544 1067 0 1067 C0 714.89 0 362.78 0 0 Z " fill="#FEFEFE" transform="translate(0,0)"/>
<path d="M0 0 C528 0 1056 0 1600 0 C1600 175.89 1600 351.78 1600 533 C1072 533 544 533 0 533 C0 357.11 0 181.22 0 0 Z " fill="#EC2939" transform="translate(0,0)"/>
<path d="M0 0 C0 0.66 0 1.32 0 2 C-0.86238281 2.32871094 -1.72476562 2.65742187 -2.61328125 2.99609375 C-25.29985419 11.83595163 -46.92397106 22.71619368 -66 38 C-66.8559375 38.66515625 -67.711875 39.3303125 -68.59375 40.015625 C-85.4721143 53.24742911 -101.56274968 68.4664271 -114 86 C-114.81331787 87.1439624 -114.81331787 87.1439624 -115.64306641 88.31103516 C-127.65396071 105.38478761 -137.95741206 123.29727598 -145 143 C-145.25088379 143.69125977 -145.50176758 144.38251953 -145.76025391 145.09472656 C-149.76502418 156.21111792 -152.82685693 167.38695028 -155 179 C-155.25152832 180.26166992 -155.50305664 181.52333984 -155.76220703 182.82324219 C-158.0161641 194.66120608 -158.55847264 206.21761636 -158.5 218.25 C-158.49856995 219.20544708 -158.49713989 220.16089417 -158.4956665 221.14529419 C-158.40562857 245.59059356 -154.64247817 268.73301586 -147 292 C-146.78875488 292.65838867 -146.57750977 293.31677734 -146.35986328 293.99511719 C-136.12048977 325.62908822 -116.8871739 354.15423992 -94 378 C-93.46503906 378.56219238 -92.93007813 379.12438477 -92.37890625 379.70361328 C-84.15592208 388.30403813 -75.57128983 395.93732515 -66 403 C-65.42781738 403.42764648 -64.85563477 403.85529297 -64.26611328 404.29589844 C-50.189788 414.78663226 -33.74016512 426.41994496 -17 432 C-17 432.66 -17 433.32 -17 434 C-70.64775862 434.71647921 -122.7041979 422.62889162 -167 391 C-168.06992188 390.236875 -169.13984375 389.47375 -170.2421875 388.6875 C-176.01456052 384.45736405 -181.42990458 379.97399994 -186.69140625 375.125 C-188.82224256 373.16362106 -190.99179604 371.26305255 -193.1875 369.375 C-203.81529754 360.09168287 -212.66066065 349.33985392 -221 338 C-221.40089844 337.45553223 -221.80179688 336.91106445 -222.21484375 336.35009766 C-239.69127616 312.24837837 -250.57261183 284.89278519 -257 256 C-257.18079102 255.18998535 -257.36158203 254.3799707 -257.54785156 253.54541016 C-260.18241029 241.00375831 -260.27960557 228.38573347 -260.3125 215.625 C-260.31626648 214.81529755 -260.32003296 214.00559509 -260.32391357 213.1713562 C-260.34883308 202.60025876 -259.71943662 192.45051999 -258 182 C-257.79709351 180.7330127 -257.79709351 180.7330127 -257.59008789 179.44042969 C-254.44440308 161.04030036 -248.57601998 142.59138005 -240 126 C-239.67950684 125.36078613 -239.35901367 124.72157227 -239.02880859 124.06298828 C-219.70843408 85.53922336 -189.80437781 54.25899578 -153 32 C-152.40848145 31.63841797 -151.81696289 31.27683594 -151.20751953 30.90429688 C-127.75124638 16.69900248 -101.75728799 7.6076444 -75 2 C-74.05640625 1.79761719 -73.1128125 1.59523437 -72.140625 1.38671875 C-69.43358871 0.84941306 -66.72980938 0.40656735 -64 0 C-62.783125 -0.185625 -61.56625 -0.37125 -60.3125 -0.5625 C-40.39540001 -3.31796967 -19.86924526 -2.94359189 0 0 Z " fill="#FEFDFD" transform="translate(400,51)"/>
<path d="M0 0 C2.60643097 1.30321548 2.62598815 2.22882555 3.55078125 4.9453125 C3.83759766 5.77675781 4.12441406 6.60820313 4.41992188 7.46484375 C4.71447266 8.34269531 5.00902344 9.22054687 5.3125 10.125 C5.59544922 10.94871094 5.87839844 11.77242187 6.16992188 12.62109375 C8.83060098 20.3966482 11.40131428 28.20394284 14 36 C26.21 36.33 38.42 36.66 51 37 C51 37.66 51 38.32 51 39 C49.45111498 40.41706502 47.83238466 41.75809496 46.1875 43.0625 C45.1871875 43.86300781 44.186875 44.66351563 43.15625 45.48828125 C42.63417969 45.90287598 42.11210938 46.3174707 41.57421875 46.74462891 C38.17127156 49.45833152 34.81512412 52.22953122 31.46484375 55.0078125 C29.99443052 56.19626059 28.49428375 57.3512185 26.94140625 58.4296875 C25.0421135 59.68909299 25.0421135 59.68909299 23 62 C23.34520605 67.83098041 25.14912942 73.26024806 26.875 78.8125 C27.39322917 80.50651042 27.91145833 82.20052083 28.4296875 83.89453125 C28.68588867 84.72549316 28.94208984 85.55645508 29.20605469 86.41259766 C30.49161007 90.60211671 31.74584562 94.8009925 33 99 C29.33681659 97.32288655 26.15308317 95.12010184 22.84375 92.83203125 C21.64495448 92.01305203 20.44572242 91.19471149 19.24609375 90.37695312 C17.36564595 89.09236637 15.48811824 87.80424749 13.61767578 86.50512695 C11.80489744 85.24824514 9.98182001 84.00773314 8.15625 82.76953125 C7.07150391 82.02292236 5.98675781 81.27631348 4.86914062 80.50708008 C2.23845535 78.82940766 2.23845535 78.82940766 -0.04321289 79.04614258 C-2.67818585 80.33058916 -5.03741665 81.84625849 -7.46484375 83.4921875 C-8.51220703 84.19730469 -9.55957031 84.90242188 -10.63867188 85.62890625 C-11.72728516 86.37011719 -12.81589844 87.11132812 -13.9375 87.875 C-16.09180337 89.33168285 -18.24672914 90.78744574 -20.40234375 92.2421875 C-21.83308228 93.21454346 -21.83308228 93.21454346 -23.29272461 94.20654297 C-25.821762 95.88192476 -28.38577112 97.46179924 -31 99 C-29.55119856 90.63687927 -27.10069326 82.79952389 -24.390625 74.77148438 C-23.93042969 73.37446289 -23.93042969 73.37446289 -23.4609375 71.94921875 C-23.18040527 71.11737061 -22.89987305 70.28552246 -22.61083984 69.4284668 C-21.94459208 66.77971919 -21.68686078 64.7174021 -22 62 C-23.17791867 60.28571867 -23.17791867 60.28571867 -24.9296875 58.94921875 C-25.55584961 58.41917236 -26.18201172 57.88912598 -26.82714844 57.34301758 C-27.50293945 56.79669678 -28.17873047 56.25037598 -28.875 55.6875 C-29.8964209 54.83418091 -29.8964209 54.83418091 -30.93847656 53.96362305 C-32.94652271 52.29317315 -34.97031827 50.64405246 -37 49 C-38.03915353 48.14854859 -39.07822653 47.29699887 -40.1171875 46.4453125 C-43.34617604 43.82954434 -46.54130773 41.30579485 -50 39 C-50 38.34 -50 37.68 -50 37 C-37.46 37 -24.92 37 -12 37 C-10.515 31.06 -10.515 31.06 -9 25 C-8.28928056 22.77221652 -7.54397445 20.55459704 -6.73828125 18.359375 C-6.14370117 16.72548828 -6.14370117 16.72548828 -5.53710938 15.05859375 C-5.13298828 13.96675781 -4.72886719 12.87492187 -4.3125 11.75 C-3.89677734 10.61175781 -3.48105469 9.47351563 -3.05273438 8.30078125 C-2.04055196 5.53182245 -1.02292344 2.76500471 0 0 Z " fill="#FEF9F9" transform="translate(471,91)"/>
<path d="M0 0 C2.56926767 2.56926767 3.16256879 4.89087274 4.34765625 8.328125 C4.56441513 8.95475037 4.78117401 9.58137573 5.00450134 10.22698975 C5.46197976 11.55415858 5.91654313 12.88233528 6.3684082 14.21142578 C7.05603595 16.23101485 7.75480297 18.2464852 8.45507812 20.26171875 C8.89911432 21.55445522 9.34249462 22.8474172 9.78515625 24.140625 C10.18613525 25.31141602 10.58711426 26.48220703 11.00024414 27.68847656 C12 31 12 31 13 37 C25.54 37 38.08 37 51 37 C47.99138272 40.7607716 45.76604966 43.21437368 42.125 46.125 C41.17238281 46.88941406 40.21976562 47.65382813 39.23828125 48.44140625 C38.15961055 49.29522728 37.0801304 50.14802633 36 51 C35.38044434 51.48968262 34.76088867 51.97936523 34.12255859 52.48388672 C30.09079095 55.66760331 26.04871254 58.83786685 22 62 C23.29601624 67.36323772 24.75920821 72.62017939 26.4375 77.875 C26.87645873 79.27208621 27.31526094 80.66922161 27.75390625 82.06640625 C28.50049871 84.43241633 29.25855365 86.79335662 30.02734375 89.15234375 C30.30707031 90.03019531 30.58679688 90.90804687 30.875 91.8125 C31.11992187 92.56144531 31.36484375 93.31039062 31.6171875 94.08203125 C32 96 32 96 31 99 C30.54786133 98.67837891 30.09572266 98.35675781 29.62988281 98.02539062 C25.16879882 94.85537555 20.69587326 91.70278859 16.21484375 88.56103516 C14.25864844 87.18229697 12.31538032 85.78755454 10.375 84.38671875 C8.828125 83.29810547 8.828125 83.29810547 7.25 82.1875 C6.34765625 81.54167969 5.4453125 80.89585937 4.515625 80.23046875 C1.3786788 78.69609289 0.30695143 79.03860205 -3 80 C-5.36384088 81.31671937 -5.36384088 81.31671937 -7.65234375 83.01953125 C-8.51150391 83.62990234 -9.37066406 84.24027344 -10.25585938 84.86914062 C-11.58327148 85.83110352 -11.58327148 85.83110352 -12.9375 86.8125 C-14.69626679 88.06949719 -16.45537303 89.32601957 -18.21484375 90.58203125 C-19.04097168 91.17322754 -19.86709961 91.76442383 -20.71826172 92.37353516 C-28.61152807 98 -28.61152807 98 -31 98 C-29.50758791 89.4195181 -27.00735467 81.30463322 -24.30273438 73.0390625 C-23.99271484 72.059375 -23.68269531 71.0796875 -23.36328125 70.0703125 C-23.07751221 69.19133301 -22.79174316 68.31235352 -22.49731445 67.40673828 C-21.95752127 64.79442548 -22.00383642 63.4582483 -23 61 C-24.9183815 59.13735129 -26.79813724 57.47781717 -28.875 55.8125 C-29.45564209 55.33417725 -30.03628418 54.85585449 -30.63452148 54.36303711 C-32.41544693 52.89911979 -34.20642122 51.44837323 -36 50 C-38.02228686 48.35594332 -40.04233525 46.70916601 -42.0625 45.0625 C-42.91972656 44.37285156 -43.77695312 43.68320312 -44.66015625 42.97265625 C-46.87992234 41.10123409 -48.94700434 39.05299566 -51 37 C-38.46 36.67 -25.92 36.34 -13 36 C-9.09261908 24.52757945 -9.09261908 24.52757945 -5.19165039 13.05297852 C-4.70221898 11.61987473 -4.21256938 10.18684543 -3.72265625 8.75390625 C-3.46867065 8.00330933 -3.21468506 7.2527124 -2.95300293 6.47937012 C-1.1140718 1.1140718 -1.1140718 1.1140718 0 0 Z " fill="#FEFAFA" transform="translate(395,317)"/>
<path d="M0 0 C0.66 0 1.32 0 2 0 C2.39832031 1.20785156 2.79664063 2.41570312 3.20703125 3.66015625 C4.525573 7.61733181 5.88531797 11.55868027 7.26171875 15.49609375 C7.65810547 16.63111328 8.05449219 17.76613281 8.46289062 18.93554688 C9.28909408 21.29819887 10.11726465 23.66016377 10.94726562 26.02148438 C11.33978516 27.14748047 11.73230469 28.27347656 12.13671875 29.43359375 C12.67365356 30.96584595 12.67365356 30.96584595 13.22143555 32.52905273 C14 35 14 35 14 37 C26.54 37 39.08 37 52 37 C46.36281179 42.63718821 46.36281179 42.63718821 43.546875 45.0859375 C42.93142822 45.62130127 42.31598145 46.15666504 41.68188477 46.70825195 C41.04436279 47.25827881 40.40684082 47.80830566 39.75 48.375 C39.0912085 48.94500732 38.43241699 49.51501465 37.75366211 50.10229492 C32.95574773 54.23100639 28.05898033 58.19457232 23 62 C24.5456618 69.39229556 26.61275511 76.51501984 28.87695312 83.71484375 C30.34731334 88.48893104 31.45469593 93.03167404 32 98 C28.43995075 96.35390409 25.30402488 94.25178266 22.0625 92.05078125 C20.90927536 91.27736639 19.75561627 90.504599 18.6015625 89.73242188 C16.79359116 88.52029286 14.98850202 87.30465525 13.19042969 86.07788086 C11.44699771 84.89049442 9.69349604 83.71947843 7.9375 82.55078125 C6.89464844 81.84606689 5.85179687 81.14135254 4.77734375 80.4152832 C2.22579643 78.84354529 2.22579643 78.84354529 0.02246094 79.02587891 C-2.92342733 80.44477004 -5.60196011 82.19787229 -8.296875 84.03515625 C-8.89050842 84.43327011 -9.48414185 84.83138397 -10.09576416 85.24156189 C-11.9842003 86.50982147 -13.86711723 87.78601412 -15.75 89.0625 C-17.03219585 89.92565962 -18.31474414 90.78829595 -19.59765625 91.65039062 C-22.73588728 93.76088491 -25.86919387 95.87850855 -29 98 C-30.41018159 94.20533996 -29.55799454 91.67287913 -28.3828125 87.87890625 C-28.02316406 86.69619141 -27.66351562 85.51347656 -27.29296875 84.29492188 C-26.90753906 83.06322266 -26.52210938 81.83152344 -26.125 80.5625 C-25.37577065 78.12686534 -24.6283056 75.69068709 -23.8828125 73.25390625 C-23.54652832 72.17439697 -23.21024414 71.0948877 -22.86376953 69.98266602 C-22.09551617 67.32982507 -21.49228517 64.71574177 -21 62 C-21.64324219 61.47792969 -22.28648437 60.95585937 -22.94921875 60.41796875 C-28.2905151 56.06721238 -33.6036317 51.68517313 -38.875 47.25 C-39.40955811 46.80293701 -39.94411621 46.35587402 -40.49487305 45.89526367 C-43.85473527 43.05812849 -46.87222586 40.12777414 -50 37 C-37.46 37 -24.92 37 -12 37 C-11.67 35.35 -11.34 33.7 -11 32 C-10.1952502 29.48885179 -9.36519918 27.00019032 -8.49609375 24.51171875 C-8.13198143 23.4569207 -8.13198143 23.4569207 -7.76051331 22.3808136 C-6.98920292 20.1486479 -6.21342234 17.9180662 -5.4375 15.6875 C-4.91181288 14.16872239 -4.38641906 12.64984322 -3.86132812 11.13085938 C-2.57761156 7.41938856 -1.28988531 3.70933121 0 0 Z " fill="#FEF8F8" transform="translate(544,317)"/>
<path d="M0 0 C0.66 0 1.32 0 2 0 C3.44481798 3.93485236 4.87947227 7.87334004 6.3125 11.8125 C6.71662109 12.91271484 7.12074219 14.01292969 7.53710938 15.14648438 C7.93349609 16.23896484 8.32988281 17.33144531 8.73828125 18.45703125 C9.09962158 19.44678955 9.46096191 20.43654785 9.83325195 21.45629883 C11.41033606 26.24629169 12.67311518 31.13475565 14 36 C26.21 36 38.42 36 51 36 C48.05302222 39.68372222 46.13214338 41.89208584 42.5625 44.625 C39.49508806 47.01127278 36.4737759 49.42754142 33.52734375 51.9609375 C32.64937134 52.71576416 32.64937134 52.71576416 31.75366211 53.48583984 C30.59634719 54.48509741 29.4421356 55.48796197 28.29125977 56.49462891 C24.2186063 60 24.2186063 60 22 60 C25.63 72.21 29.26 84.42 33 97 C29.52304575 95.6092183 27.27739129 94.68177931 24.36328125 92.64453125 C23.7081958 92.18973389 23.05311035 91.73493652 22.37817383 91.26635742 C21.69650146 90.78658447 21.0148291 90.30681152 20.3125 89.8125 C19.60569092 89.32434814 18.89888184 88.83619629 18.1706543 88.33325195 C15.03367205 86.16066891 11.94476846 83.95801845 8.90625 81.6484375 C8.0503125 81.00132812 7.194375 80.35421875 6.3125 79.6875 C5.58675781 79.11386719 4.86101562 78.54023438 4.11328125 77.94921875 C2.00845053 76.72436996 2.00845053 76.72436996 -0.26635742 77.69824219 C-3.36104527 79.17192939 -6.03506496 80.92447706 -8.8515625 82.87890625 C-9.39227386 83.25103745 -9.93298523 83.62316864 -10.49008179 84.00657654 C-12.20493687 85.18730684 -13.91533556 86.37426875 -15.625 87.5625 C-17.34210709 88.75383929 -19.06017282 89.9436704 -20.78134155 91.12913513 C-22.33809359 92.20157175 -23.89107125 93.27948114 -25.44384766 94.35766602 C-28 96 -28 96 -31 97 C-29.63969173 90.97577766 -28.06458422 85.1125391 -26.1015625 79.2578125 C-25.76777588 78.24017822 -25.43398926 77.22254395 -25.09008789 76.17407227 C-24.40940417 74.11293802 -23.70826255 72.0584389 -22.98608398 70.01147461 C-22.1062068 67.31536827 -21.35119531 64.81450889 -21 62 C-22.35400925 58.91387709 -22.35400925 58.91387709 -25 57 C-25.67675781 56.40058594 -26.35351562 55.80117187 -27.05078125 55.18359375 C-27.79714844 54.60738281 -28.54351562 54.03117187 -29.3125 53.4375 C-30.17230469 52.76460937 -31.03210938 52.09171875 -31.91796875 51.3984375 C-32.93503906 50.60695312 -33.95210938 49.81546875 -35 49 C-37.71466663 46.86208832 -40.42056276 44.71332829 -43.125 42.5625 C-43.80087158 42.03003662 -44.47674316 41.49757324 -45.1730957 40.94897461 C-46.80064255 39.65569166 -48.40300681 38.33082766 -50 37 C-50 36.67 -50 36.34 -50 36 C-37.46 36 -24.92 36 -12 36 C-11.34 33.03 -10.68 30.06 -10 27 C-9.33464067 24.8930549 -8.62825743 22.79837874 -7.87109375 20.72265625 C-7.27844727 19.08780273 -7.27844727 19.08780273 -6.67382812 17.41992188 C-6.26583984 16.31197266 -5.85785156 15.20402344 -5.4375 14.0625 C-5.02564453 12.92748047 -4.61378906 11.79246094 -4.18945312 10.62304688 C-1.17589286 2.35178571 -1.17589286 2.35178571 0 0 Z " fill="#FEFBFB" transform="translate(353,180)"/>
<path d="M0 0 C2.20804163 2.20804163 2.64866754 3.50302925 3.5859375 6.4375 C3.87726562 7.33339844 4.16859375 8.22929687 4.46875 9.15234375 C4.7678125 10.09207031 5.066875 11.03179687 5.375 12 C7.42683578 18.40063817 9.5948983 24.68884122 12.15478516 30.90625 C12.8307913 32.58083944 13.42892784 34.28678353 14 36 C26.21 36.33 38.42 36.66 51 37 C45.36734694 42.63265306 45.36734694 42.63265306 42.80078125 44.83203125 C42.23568848 45.31704102 41.6705957 45.80205078 41.08837891 46.30175781 C40.50233887 46.80030273 39.91629883 47.29884766 39.3125 47.8125 C38.70325684 48.33295898 38.09401367 48.85341797 37.46630859 49.38964844 C32.39572467 53.70317063 27.23203765 57.88366213 22 62 C23.10121521 65.81335869 24.20651465 69.62552231 25.3125 73.4375 C25.7755957 75.04141602 25.7755957 75.04141602 26.24804688 76.67773438 C27.86576249 82.24608181 29.54076955 87.74654016 31.57104492 93.17993164 C32 95 32 95 31 98 C21 91.33333333 11 84.66666667 1 78 C-6.20717606 81.77872725 -12.87477422 86.18730249 -19.5625 90.8125 C-20.57119141 91.50537109 -21.57988281 92.19824219 -22.61914062 92.91210938 C-25.08190069 94.60452743 -27.54209704 96.30053932 -30 98 C-31.23897749 94.28306752 -30.58589051 92.98401068 -29.3828125 89.30078125 C-29.02316406 88.17349609 -28.66351562 87.04621094 -28.29296875 85.88476562 C-27.90753906 84.70591797 -27.52210938 83.52707031 -27.125 82.3125 C-23.40100493 71.8712486 -23.40100493 71.8712486 -22 61 C-23.65177818 58.58102493 -23.65177818 58.58102493 -26.375 56.875 C-27.86580078 55.77285156 -27.86580078 55.77285156 -29.38671875 54.6484375 C-29.95181152 54.24077148 -30.5169043 53.83310547 -31.09912109 53.41308594 C-34.90657857 50.58267701 -38.53093942 47.52096995 -42.1875 44.5 C-42.95433105 43.87593262 -43.72116211 43.25186523 -44.51123047 42.60888672 C-45.2229541 42.0263916 -45.93467773 41.44389648 -46.66796875 40.84375 C-47.63126099 40.05774414 -47.63126099 40.05774414 -48.61401367 39.25585938 C-49.07138916 38.84142578 -49.52876465 38.42699219 -50 38 C-50 37.67 -50 37.34 -50 37 C-37.79 37 -25.58 37 -13 37 C-12.01 33.7 -11.02 30.4 -10 27 C-8.51012479 22.46115871 -6.94083712 17.95064667 -5.375 13.4375 C-4.96765625 12.25091797 -4.5603125 11.06433594 -4.140625 9.84179688 C-3.75132812 8.71708984 -3.36203125 7.59238281 -2.9609375 6.43359375 C-2.60821777 5.41322021 -2.25549805 4.39284668 -1.89208984 3.34155273 C-1 1 -1 1 0 0 Z " fill="#FEFAFA" transform="translate(589,179)"/>
<path d="M0 0 C1.17280442 3.51841326 0.7618715 4.51655542 -0.328125 7.98046875 C-0.63218262 8.97224121 -0.93624023 9.96401367 -1.24951172 10.98583984 C-1.57967285 12.0423877 -1.90983398 13.09893555 -2.25 14.1875 C-7.24590413 30.71962523 -10.19127061 46.72506315 -10.09765625 64.0390625 C-10.0962413 65.04593109 -10.09482635 66.05279968 -10.09336853 67.09017944 C-10.08782431 70.26848473 -10.07528259 73.44671644 -10.0625 76.625 C-10.05747778 78.79557189 -10.05291614 80.9661449 -10.04882812 83.13671875 C-10.03787323 88.42450376 -10.02119176 93.71224662 -10 99 C-10.66 99 -11.32 99 -12 99 C-12.02314782 91.73305527 -12.04092756 84.46611846 -12.05181217 77.19914436 C-12.05703565 73.82496974 -12.06412361 70.45082029 -12.07543945 67.07666016 C-12.08752436 63.19953741 -12.09323263 59.3224506 -12.09765625 55.4453125 C-12.10281754 54.23070343 -12.10797882 53.01609436 -12.11329651 51.76467896 C-12.11340981 50.08316238 -12.11340981 50.08316238 -12.11352539 48.36767578 C-12.115746 47.37728302 -12.11796661 46.38689026 -12.12025452 45.3664856 C-12 43 -12 43 -11 41 C-10.7724985 39.12943209 -10.59037189 37.25314042 -10.4375 35.375 C-10.35371094 34.37210938 -10.26992187 33.36921875 -10.18359375 32.3359375 C-10.12300781 31.56507813 -10.06242188 30.79421875 -10 30 C-9.34 30 -8.68 30 -8 30 C-8.061875 29.01 -8.12375 28.02 -8.1875 27 C-8.20265008 23.24278085 -7.15741416 20.43677382 -5.734375 17 C-4.64142028 14.02344246 -4.32768892 11.14581364 -4 8 C-3.34 8 -2.68 8 -2 8 C-2 6.02 -2 4.04 -2 2 C-1.34 2 -0.68 2 0 2 C0 1.34 0 0.68 0 0 Z " fill="#D7414E" transform="translate(151,195)"/>
<path d="M0 0 C5.49562545 0.58874198 11.03339276 0.65835747 16.5546875 0.83618164 C18.43220703 0.90095703 18.43220703 0.90095703 20.34765625 0.96704102 C23.41657273 1.07246181 26.48556139 1.17458506 29.5546875 1.27368164 C29.5546875 0.61368164 29.5546875 -0.04631836 29.5546875 -0.72631836 C31.8646875 -0.06631836 34.1746875 0.59368164 36.5546875 1.27368164 C36.5546875 1.93368164 36.5546875 2.59368164 36.5546875 3.27368164 C20.75995455 3.48462424 5.20366347 3.61998058 -10.4453125 1.27368164 C-10.4453125 0.94368164 -10.4453125 0.61368164 -10.4453125 0.27368164 C-6.72032901 -0.77396997 -3.78932878 -0.51313827 0 0 Z " fill="#FDCED3" transform="translate(346.4453125,481.726318359375)"/>
<path d="M0 0 C1.20398438 0.00193359 2.40796875 0.00386719 3.6484375 0.00585938 C5.535625 0.02422852 5.535625 0.02422852 7.4609375 0.04296875 C8.72679687 0.04361328 9.99265625 0.04425781 11.296875 0.04492188 C20.69577156 0.09030281 20.69577156 0.09030281 21.8359375 1.23046875 C24.36190009 1.46700398 26.86700957 1.65220567 29.3984375 1.79296875 C30.10935547 1.83615234 30.82027344 1.87933594 31.55273438 1.92382812 C33.31355662 2.03018652 35.0747207 2.13085721 36.8359375 2.23046875 C36.8359375 2.89046875 36.8359375 3.55046875 36.8359375 4.23046875 C35.86140625 4.16988281 34.886875 4.10929687 33.8828125 4.046875 C19.54338482 3.18885724 5.19234491 2.70758381 -9.1640625 2.23046875 C-5.63960859 -0.11916719 -4.16895856 -0.01544507 0 0 Z " fill="#DA3948" transform="translate(363.1640625,46.76953125)"/>
<path d="M0 0 C12.21 0 24.42 0 37 0 C37 0.66 37 1.32 37 2 C34.5 3.625 34.5 3.625 32 5 C32 4.01 32 3.02 32 2 C16.655 2.495 16.655 2.495 1 3 C0.67 2.01 0.34 1.02 0 0 Z " fill="#FAC9D2" transform="translate(485,128)"/>
<path d="M0 0 C12.54 0 25.08 0 38 0 C38 0.66 38 1.32 38 2 C27.11 2 16.22 2 5 2 C4.67 2.66 4.34 3.32 4 4 C2.68 2.68 1.36 1.36 0 0 Z " fill="#FACED0" transform="translate(344,354)"/>
<path d="M0 0 C0.33 0.66 0.66 1.32 1 2 C-2.09652196 5.27346607 -4.95019912 7.97509956 -9 10 C-9.99 10 -10.98 10 -12 10 C-12.33 10.99 -12.66 11.98 -13 13 C-15.9375 14.75 -15.9375 14.75 -19 16 C-19.66 15.67 -20.32 15.34 -21 15 C-21 12.69 -21 10.38 -21 8 C-20.34 8 -19.68 8 -19 8 C-19 9.65 -19 11.3 -19 13 C-12.73 8.71 -6.46 4.42 0 0 Z " fill="#DC3E4B" transform="translate(578,263)"/>
<path d="M0 0 C1.32 0.66 2.64 1.32 4 2 C1.21041079 4.148545 -1.58201699 6.29336915 -4.375 8.4375 C-5.56609375 9.35499023 -5.56609375 9.35499023 -6.78125 10.29101562 C-7.54179687 10.87431641 -8.30234375 11.45761719 -9.0859375 12.05859375 C-9.7876709 12.59798584 -10.4894043 13.13737793 -11.21240234 13.69311523 C-13 15 -13 15 -15 16 C-15 14.68 -15 13.36 -15 12 C-14.34 12 -13.68 12 -13 12 C-13 11.34 -13 10.68 -13 10 C-12.34 10 -11.68 10 -11 10 C-11 9.34 -11 8.68 -11 8 C-9.35 8 -7.7 8 -6 8 C-5.67 6.68 -5.34 5.36 -5 4 C-3.35 3.67 -1.7 3.34 0 3 C0 2.01 0 1.02 0 0 Z " fill="#DE3A4E" transform="translate(233,88)"/>
<path d="M0 0 C0.33 0.66 0.66 1.32 1 2 C-0.65 2.66 -2.3 3.32 -4 4 C-4 4.66 -4 5.32 -4 6 C-4.99 6 -5.98 6 -7 6 C-7.185625 6.61875 -7.37125 7.2375 -7.5625 7.875 C-9.71437233 11.05602866 -12.37533763 11.19451947 -16 12 C-16 12.99 -16 13.98 -16 15 C-17.65 15.66 -19.3 16.32 -21 17 C-21 16.01 -21 15.02 -21 14 C-19.6105957 12.69726562 -19.6105957 12.69726562 -17.67578125 11.40625 C-16.97646484 10.93316406 -16.27714844 10.46007812 -15.55664062 9.97265625 C-14.44579102 9.24369141 -14.44579102 9.24369141 -13.3125 8.5 C-12.59126953 8.01402344 -11.87003906 7.52804688 -11.12695312 7.02734375 C-7.47690934 4.58064773 -3.79598093 2.216194 0 0 Z " fill="#DC3E4C" transform="translate(356,73)"/>
<path d="M0 0 C12.21 0 24.42 0 37 0 C35.68 1.65 34.36 3.3 33 5 C32.34 5 31.68 5 31 5 C31 4.01 31 3.02 31 2 C20.77 1.67 10.54 1.34 0 1 C0 0.67 0 0.34 0 0 Z " fill="#FEEAED" transform="translate(367,216)"/>
<path d="M0 0 C-2.97373707 1.57982484 -5.92607671 2.70536466 -9.1328125 3.7265625 C-10.10347656 4.0359375 -11.07414062 4.3453125 -12.07421875 4.6640625 C-13.08097656 4.98117188 -14.08773438 5.29828125 -15.125 5.625 C-16.13949219 5.94984375 -17.15398437 6.2746875 -18.19921875 6.609375 C-25.74274554 9 -25.74274554 9 -28 9 C-28 8.34 -28 7.68 -28 7 C-26.68 7 -25.36 7 -24 7 C-24 6.34 -24 5.68 -24 5 C-23.21496094 4.80664062 -22.42992187 4.61328125 -21.62109375 4.4140625 C-14.80682044 2.74116317 -14.80682044 2.74116317 -8.0625 0.8125 C-5.21111604 0.05601038 -2.92958591 -0.17755066 0 0 Z " fill="#D93C49" transform="translate(312,56)"/>
<path d="M0 0 C0.54938232 0.26216309 1.09876465 0.52432617 1.66479492 0.79443359 C4.17160174 1.98956068 6.67953751 3.18230011 9.1875 4.375 C10.05181641 4.7875 10.91613281 5.2 11.80664062 5.625 C13.06831055 6.22441406 13.06831055 6.22441406 14.35546875 6.8359375 C15.12528076 7.20251465 15.89509277 7.5690918 16.68823242 7.94677734 C19.09754093 9.04443886 21.53479932 10.03527336 24 11 C22.625 12.5 22.625 12.5 21 14 C20.34 14 19.68 14 19 14 C18.67 13.01 18.34 12.02 18 11 C15.94694027 9.89195915 15.94694027 9.89195915 13.4375 9.0625 C8.76805886 7.32237733 4.42225061 5.29301883 0 3 C0 2.01 0 1.02 0 0 Z " fill="#D93F4B" transform="translate(253,454)"/>
<path d="M0 0 C0.66 0 1.32 0 2 0 C1.67 1.32 1.34 2.64 1 4 C-11.87 4 -24.74 4 -38 4 C-38 3.67 -38 3.34 -38 3 C-25.79 3 -13.58 3 -1 3 C-0.67 2.01 -0.34 1.02 0 0 Z " fill="#D63A49" transform="translate(458,124)"/>
<path d="M0 0 C1.0625 1.8125 1.0625 1.8125 2 4 C1.67 4.99 1.34 5.98 1 7 C0.34 7 -0.32 7 -1 7 C-1 8.32 -1 9.64 -1 11 C0.98 11 2.96 11 5 11 C2.11912454 13.40072955 -0.56404834 15.47291037 -4 17 C-3.45018084 10.95198929 -2.09570426 5.69398894 0 0 Z " fill="#FEDADF" transform="translate(518,398)"/>
<path d="M0 0 C0.33 0 0.66 0 1 0 C1.19439619 4.85990469 0.73622121 8.46653351 -1 13 C-1.37125 14.11375 -1.7425 15.2275 -2.125 16.375 C-2.41375 17.24125 -2.7025 18.1075 -3 19 C-2.34 19.33 -1.68 19.66 -1 20 C-2.65 20.99 -4.3 21.98 -6 23 C-4.64741104 15.11583017 -2.45600648 7.60646666 0 0 Z " fill="#FDDBDE" transform="translate(564,254)"/>
<path d="M0 0 C1.85486952 2.78230428 2.72462112 4.84363607 3.6875 8 C3.95949219 8.86625 4.23148437 9.7325 4.51171875 10.625 C5 13 5 13 4 16 C1.69 14.35 -0.62 12.7 -3 11 C-1.68 10.34 -0.36 9.68 1 9 C0.67 6.03 0.34 3.06 0 0 Z " fill="#FDD4D5" transform="translate(422,400)"/>
<path d="M0 0 C0.66 0 1.32 0 2 0 C0.3003494 4.73474097 -2.13659027 8.96167111 -4.625 13.3125 C-5.04523438 14.05306641 -5.46546875 14.79363281 -5.8984375 15.55664062 C-6.92948495 17.37269011 -7.96436046 19.18656533 -9 21 C-9.33 19.68 -9.66 18.36 -10 17 C-9.34 17 -8.68 17 -8 17 C-8 15.35 -8 13.7 -8 12 C-7.34 12 -6.68 12 -6 12 C-6 11.01 -6 10.02 -6 9 C-5.34 8.67 -4.68 8.34 -4 8 C-3.34786708 5.97536745 -3.34786708 5.97536745 -3 4 C-2.34 4 -1.68 4 -1 4 C-0.67 2.68 -0.34 1.36 0 0 Z " fill="#D64250" transform="translate(169,157)"/>
<path d="M0 0 C0.33 0.66 0.66 1.32 1 2 C-1.625 5.875 -1.625 5.875 -5 7 C-5.598125 7.804375 -6.19625 8.60875 -6.8125 9.4375 C-9.36198268 12.42403685 -11.24775032 13.06193758 -15 14 C-12.11461208 10.13220619 -9.01811193 7.19301785 -5.25 4.1875 C-4.26515625 3.39730469 -3.2803125 2.60710937 -2.265625 1.79296875 C-1.51796875 1.20128906 -0.7703125 0.60960937 0 0 Z " fill="#DA3E4C" transform="translate(445,355)"/>
<path d="M0 0 C0.33 1.32 0.66 2.64 1 4 C1.99 4.66 2.98 5.32 4 6 C4 5.34 4 4.68 4 4 C4.99 4.33 5.98 4.66 7 5 C4.48972295 7.5999298 2.0136316 9.99091227 -1 12 C-1.66 12 -2.32 12 -3 12 C-2.01 8.04 -1.02 4.08 0 0 Z " fill="#FDD8DC" transform="translate(325,265)"/>
<path d="M0 0 C0.66 0.33 1.32 0.66 2 1 C-3.46691762 5.87106829 -7.62628201 7.96586242 -15 8 C-11.96943208 5.55831021 -8.90981404 3.86972611 -5.375 2.25 C-4.41335938 1.80140625 -3.45171875 1.3528125 -2.4609375 0.890625 C-1.64882813 0.59671875 -0.83671875 0.3028125 0 0 Z " fill="#DE404C" transform="translate(383,59)"/>
<path d="M0 0 C0.33 0 0.66 0 1 0 C1.04241723 2.33294775 1.04092937 4.66702567 1 7 C0.67 7.33 0.34 7.66 0 8 C-0.12375 9.03125 -0.2475 10.0625 -0.375 11.125 C-1.04473892 15.2773813 -2.22550585 18.21955594 -4 22 C-5.0354051 18.8151065 -4.94040666 16.86968126 -4.00390625 13.671875 C-3.66069336 12.47304687 -3.66069336 12.47304687 -3.31054688 11.25 C-3.06369141 10.425 -2.81683594 9.6 -2.5625 8.75 C-2.31951172 7.90953125 -2.07652344 7.0690625 -1.82617188 6.203125 C-1.22626051 4.13284266 -0.61429181 2.06606103 0 0 Z " fill="#D74953" transform="translate(250,206)"/>
<path d="M0 0 C-0.625 2.3125 -0.625 2.3125 -2 5 C-3.96303418 6.07074592 -5.9697411 7.06295743 -8 8 C-10.1007716 9.57320226 -12.02803702 11.26279452 -14 13 C-14.66 12.67 -15.32 12.34 -16 12 C-13.71336873 9.99397361 -11.42114438 7.99508435 -9.125 6 C-8.14853516 5.14148438 -8.14853516 5.14148438 -7.15234375 4.265625 C-6.52714844 3.72421875 -5.90195312 3.1828125 -5.2578125 2.625 C-4.6817627 2.12226563 -4.10571289 1.61953125 -3.51220703 1.1015625 C-2 0 -2 0 0 0 Z " fill="#D7414D" transform="translate(516,135)"/>
<path d="M0 0 C0 0.66 0 1.32 0 2 C-0.66 2 -1.32 2 -2 2 C-2.268125 2.78375 -2.53625 3.5675 -2.8125 4.375 C-4 7 -4 7 -7 9 C-8.65549531 9.38499891 -10.3222433 9.72793135 -12 10 C-4.57142857 0 -4.57142857 0 0 0 Z " fill="#DE394E" transform="translate(582,367)"/>
<path d="M0 0 C8.25 0 16.5 0 25 0 C23.68 1.32 22.36 2.64 21 4 C20.67 3.34 20.34 2.68 20 2 C13.4 1.67 6.8 1.34 0 1 C0 0.67 0 0.34 0 0 Z " fill="#FEEEF0" transform="translate(420,355)"/>
<path d="M0 0 C1.0326802 2.78823655 1.04509293 3.8677274 0.0625 6.75 C-0.288125 7.4925 -0.63875 8.235 -1 9 C2.96 6.525 2.96 6.525 7 4 C7 4.99 7 5.98 7 7 C6.01 7 5.02 7 4 7 C3.34 8.32 2.68 9.64 2 11 C0.68 10.67 -0.64 10.34 -2 10 C-1.54177532 6.53058454 -1.10868317 3.32604951 0 0 Z " fill="#DB3D4B" transform="translate(323,268)"/>
<path d="M0 0 C2.74801432 2.37328509 3.71082173 4.6481365 5 8 C5.66 8.66 6.32 9.32 7 10 C6.625 13.625 6.625 13.625 6 17 C3.38832897 14.38832897 2.92868518 12.0278941 1.875 8.5 C1.52179688 7.3346875 1.16859375 6.169375 0.8046875 4.96875 C0 2 0 2 0 0 Z " fill="#D6434C" transform="translate(417,383)"/>
<path d="M0 0 C0.99 0.33 1.98 0.66 3 1 C2.48594831 5.96916636 1.76615118 10.29026351 0 15 C-1.09651823 11.58860997 -0.94215473 8.79344419 -0.5625 5.25 C-0.46066406 4.26515625 -0.35882812 3.2803125 -0.25390625 2.265625 C-0.17011719 1.51796875 -0.08632813 0.7703125 0 0 Z " fill="#D54250" transform="translate(565,239)"/>
<path d="M0 0 C4.29 0 8.58 0 13 0 C13 0.33 13 0.66 13 1 C10.36 1 7.72 1 5 1 C5 1.99 5 2.98 5 4 C5.99 4 6.98 4 8 4 C7.67 4.99 7.34 5.98 7 7 C5.83040013 6.02433888 4.66438823 5.044375 3.5 4.0625 C2.8503125 3.51722656 2.200625 2.97195312 1.53125 2.41015625 C1.0259375 1.94480469 0.520625 1.47945312 0 1 C0 0.67 0 0.34 0 0 Z " fill="#FEE5EA" transform="translate(422,129)"/>
<path d="M0 0 C2.32785307 1.03460136 3.63642499 2.04672498 5.25 4 C4.68539062 3.8040625 4.12078125 3.608125 3.5390625 3.40625 C0.72682185 2.90714927 -0.73211494 3.47466666 -3.375 4.5 C-5.7265625 5.40625 -5.7265625 5.40625 -7.75 6 C-8.41 5.67 -9.07 5.34 -9.75 5 C-3.74653979 0 -3.74653979 0 0 0 Z " fill="#D94052" transform="translate(545.75,395)"/>
<path d="M0 0 C1.96301592 3.50538557 2.95902388 7.13351728 4 11 C0.62496331 9.8141763 -1.64722731 8.72426311 -4 6 C-3.01 5.67 -2.02 5.34 -1 5 C-0.67 3.35 -0.34 1.7 0 0 Z " fill="#FED4D7" transform="translate(382,266)"/>
<path d="M0 0 C-1.32 0.33 -2.64 0.66 -4 1 C-4 1.66 -4 2.32 -4 3 C-5.58086048 3.36504603 -7.16483907 3.71660506 -8.75 4.0625 C-9.63171875 4.25972656 -10.5134375 4.45695312 -11.421875 4.66015625 C-14.02266321 5.00298742 -15.51848845 4.70340244 -18 4 C-15.37764986 3.13683464 -12.75266548 2.28419221 -10.125 1.4375 C-9.37863281 1.19064453 -8.63226563 0.94378906 -7.86328125 0.68945312 C-2.2265625 -1.11328125 -2.2265625 -1.11328125 0 0 Z " fill="#FEE0E5" transform="translate(304,60)"/>
<path d="M0 0 C3 1 3 1 4.6875 4.125 C6.14581407 7.79357134 6.24159551 11.05393993 6 15 C3.95349609 11.93024413 3.00295435 9.30915848 1.875 5.8125 C1.52179688 4.72582031 1.16859375 3.63914062 0.8046875 2.51953125 C0.53914063 1.68808594 0.27359375 0.85664063 0 0 Z " fill="#D83A47" transform="translate(395,316)"/>
<path d="M0 0 C0.33 1.32 0.66 2.64 1 4 C-1.97 6.475 -1.97 6.475 -5 9 C-5.66 8.67 -6.32 8.34 -7 8 C-4.69 5.36 -2.38 2.72 0 0 Z " fill="#DA3B4D" transform="translate(302,117)"/>
<path d="M0 0 C1.8871875 0.061875 1.8871875 0.061875 3.8125 0.125 C3.8125 0.785 3.8125 1.445 3.8125 2.125 C-0.6425 3.61 -0.6425 3.61 -5.1875 5.125 C-5.1875 4.465 -5.1875 3.805 -5.1875 3.125 C-5.8475 2.795 -6.5075 2.465 -7.1875 2.125 C-4.09861478 0.06574319 -3.47814073 -0.1140374 0 0 Z " fill="#FEDDE3" transform="translate(396.1875,50.875)"/>
<path d="M0 0 C2.29633824 3.44450737 2.54016485 5.93812283 3 10 C0.11562221 8.70700306 -1.87219421 7.34058637 -4 5 C-2.68 5.33 -1.36 5.66 0 6 C0 4.02 0 2.04 0 0 Z " fill="#FDD8D9" transform="translate(573,405)"/>
<path d="M0 0 C0.33 0.99 0.66 1.98 1 3 C-1.06756277 5.7972908 -2.14440371 6.02692273 -5.6875 6.6875 C-6.780625 6.790625 -7.87375 6.89375 -9 7 C-6.24479785 4.04070881 -3.53372712 1.96318174 0 0 Z " fill="#DD354B" transform="translate(535,401)"/>
<path d="M0 0 C0.33 0.66 0.66 1.32 1 2 C-2.32307692 6.8 -2.32307692 6.8 -5.75 7.8125 C-6.4925 7.874375 -7.235 7.93625 -8 8 C-6.88333826 4.65001479 -6.25305075 4.20659778 -3.4375 2.3125 C-2.79683594 1.87550781 -2.15617187 1.43851562 -1.49609375 0.98828125 C-1.00238281 0.66214844 -0.50867188 0.33601563 0 0 Z " fill="#DE3F4F" transform="translate(424,373)"/>
<path d="M0 0 C2.12508244 3.18762365 2.5020163 5.26512223 3 9 C-0.465 7.02 -0.465 7.02 -4 5 C-3.01 4.34 -2.02 3.68 -1 3 C-0.67 2.01 -0.34 1.02 0 0 Z " fill="#FDD7D2" transform="translate(618,268)"/>
<path d="M0 0 C-5.28 -0.33 -10.56 -0.66 -16 -1 C-16 -1.33 -16 -1.66 -16 -2 C-10.38362811 -3.57960459 -4.91201114 -3.27467409 0 0 Z " fill="#F9C6CD" transform="translate(352,484)"/>
<path d="M0 0 C0.66 0.33 1.32 0.66 2 1 C1.34 4.3 0.68 7.6 0 11 C-0.33 11 -0.66 11 -1 11 C-1.33 8.03 -1.66 5.06 -2 2 C-1.34 2 -0.68 2 0 2 C0 1.34 0 0.68 0 0 Z " fill="#D83A40" transform="translate(372,378)"/>
<path d="M0 0 C0.99787444 2.99362333 1.05361149 4.49096371 0.75 7.5625 C0.68296875 8.34753906 0.6159375 9.13257813 0.546875 9.94140625 C0 12 0 12 -3 14 C-2.48594831 9.03083364 -1.76615118 4.70973649 0 0 Z " fill="#FCDCE1" transform="translate(147,212)"/>
<path d="M0 0 C0.66 0.33 1.32 0.66 2 1 C-1.49087093 5.0042343 -3.64951939 6.62671065 -9 7 C-6.25604436 4.05278838 -3.61662784 1.80831392 0 0 Z " fill="#FEE0E1" transform="translate(250,81)"/>
<path d="M0 0 C0.66 0 1.32 0 2 0 C2.33 1.32 2.66 2.64 3 4 C2.01 4.33 1.02 4.66 0 5 C-1.22969878 8.51190809 -1.22969878 8.51190809 -2 12 C-2.66 12 -3.32 12 -4 12 C-3.52309796 10.37433394 -3.04340334 8.74948689 -2.5625 7.125 C-2.29566406 6.22007812 -2.02882813 5.31515625 -1.75390625 4.3828125 C-1 2 -1 2 0 0 Z " fill="#FED8D7" transform="translate(353,180)"/>
<path d="M0 0 C0.66 0.33 1.32 0.66 2 1 C2.625 4.0625 2.625 4.0625 3 7 C2.01 7 1.02 7 0 7 C-0.33 7.66 -0.66 8.32 -1 9 C-1.66 8.67 -2.32 8.34 -3 8 C-2.01 5.36 -1.02 2.72 0 0 Z " fill="#FCCFD1" transform="translate(471,91)"/>
<path d="M0 0 C0.99 0.33 1.98 0.66 3 1 C2.34 1 1.68 1 1 1 C1 1.66 1 2.32 1 3 C-0.62626404 4.38232443 -2.2925002 5.71937515 -4 7 C-4.99 6.34 -5.98 5.68 -7 5 C-5.90554162 4.13342884 -4.79902219 3.28207276 -3.6875 2.4375 C-3.07261719 1.96183594 -2.45773437 1.48617187 -1.82421875 0.99609375 C-1.22222656 0.66738281 -0.62023437 0.33867187 0 0 Z " fill="#D4414D" transform="translate(470,169)"/>
<path d="M0 0 C0.33 0.99 0.66 1.98 1 3 C-0.27358732 4.71275535 -1.61423077 6.37667033 -3 8 C-3.70885894 9.31138904 -4.39456452 10.63777017 -5 12 C-5.66 12 -6.32 12 -7 12 C-5.44298069 7.32894208 -2.91552627 3.91294315 0 0 Z " fill="#DA4453" transform="translate(285,137)"/>
<path d="M0 0 C-3.1622274 1.73169596 -6.26742722 2.7128976 -9.75 3.625 C-10.73484375 3.88539062 -11.7196875 4.14578125 -12.734375 4.4140625 C-13.85585938 4.70410156 -13.85585938 4.70410156 -15 5 C-15 4.34 -15 3.68 -15 3 C-10.25420243 0.26203987 -5.40112241 -0.15885654 0 0 Z " fill="#D8464F" transform="translate(312,56)"/>
<path d="M0 0 C0.99 0.66 1.98 1.32 3 2 C2.030625 2.45375 1.06125 2.9075 0.0625 3.375 C-3.07079582 4.65786221 -3.07079582 4.65786221 -4 7 C-5.32 6.67 -6.64 6.34 -8 6 C-5.36 4.02 -2.72 2.04 0 0 Z " fill="#DE444F" transform="translate(389,398)"/>
<path d="M0 0 C0.66 0 1.32 0 2 0 C1.56179109 4.55737263 1.14958831 7.57653445 -2 11 C-2 9.02 -2 7.04 -2 5 C-1.34 5 -0.68 5 0 5 C0 3.35 0 1.7 0 0 Z " fill="#D7404A" transform="translate(345,195)"/>
<path d="M0 0 C0.33 0 0.66 0 1 0 C1 2.31 1 4.62 1 7 C1.66 7.33 2.32 7.66 3 8 C1.35 8.66 -0.3 9.32 -2 10 C-1.34 6.7 -0.68 3.4 0 0 Z " fill="#FCD1D6" transform="translate(366,405)"/>
<path d="M0 0 C1.70884005 1.62339805 3.37446717 3.29319053 5 5 C5 5.66 5 6.32 5 7 C3.35 7 1.7 7 0 7 C0 4.69 0 2.38 0 0 Z " fill="#DA404A" transform="translate(176,385)"/>
<path d="M0 0 C0.66 0 1.32 0 2 0 C1.71758359 1.46015291 1.42373386 2.91809793 1.125 4.375 C0.96257813 5.18710937 0.80015625 5.99921875 0.6328125 6.8359375 C0 9 0 9 -2 11 C-2.19622241 6.78121808 -1.80230168 3.82989106 0 0 Z " fill="#D43742" transform="translate(537,331)"/>
<path d="M0 0 C0.33 0 0.66 0 1 0 C1 3.3 1 6.6 1 10 C-0.32 10.33 -1.64 10.66 -3 11 C-2.01 7.37 -1.02 3.74 0 0 Z " fill="#FCD6D7" transform="translate(331,246)"/>
<path d="M0 0 C1.22268689 4.89074757 0.20961767 7.58076466 -2 12 C-2.66 11.67 -3.32 11.34 -4 11 C-2.68 7.37 -1.36 3.74 0 0 Z " fill="#D64653" transform="translate(257,186)"/>
<path d="M0 0 C0.99 0.33 1.98 0.66 3 1 C1.02 3.97 -0.96 6.94 -3 10 C-4 7 -4 7 -3.0625 4.8125 C-2.711875 4.214375 -2.36125 3.61625 -2 3 C-1.34 3 -0.68 3 0 3 C0 2.01 0 1.02 0 0 Z " fill="#FDE0E1" transform="translate(283,136)"/>
<path d="M0 0 C1.32 0.33 2.64 0.66 4 1 C-0.455 3.97 -0.455 3.97 -5 7 C-5 5.68 -5 4.36 -5 3 C-3.35 2.67 -1.7 2.34 0 2 C0 1.34 0 0.68 0 0 Z " fill="#FDE6E1" transform="translate(329,89)"/>
<path d="M0 0 C2.97 0.33 5.94 0.66 9 1 C9 1.33 9 1.66 9 2 C7.58622218 2.36552803 6.16879424 2.71695495 4.75 3.0625 C3.96109375 3.25972656 3.1721875 3.45695312 2.359375 3.66015625 C-0.10394822 4.01497267 -1.65604132 3.76877544 -4 3 C-3.01 3 -2.02 3 -1 3 C-0.67 2.01 -0.34 1.02 0 0 Z " fill="#D63B46" transform="translate(316,52)"/>
<path d="M0 0 C1.1446875 0.2475 1.1446875 0.2475 2.3125 0.5 C5.03596236 1.09145396 5.03596236 1.09145396 8 1 C8 2.32 8 3.64 8 5 C4.62496331 3.8141763 2.35277269 2.72426311 0 0 Z " fill="#FBE0E4" transform="translate(244,448)"/>
<path d="M0 0 C3.53600465 1.91135386 5.78972846 3.62642766 8 7 C6.35 6.67 4.7 6.34 3 6 C2.67 5.01 2.34 4.02 2 3 C1.34 2.67 0.68 2.34 0 2 C0 1.34 0 0.68 0 0 Z " fill="#DA4251" transform="translate(208,422)"/>
<path d="M0 0 C0.66 0.66 1.32 1.32 2 2 C1.875 3.9375 1.875 3.9375 1 6 C-1.0625 7.75 -1.0625 7.75 -3 9 C-2.01 6.03 -1.02 3.06 0 0 Z " fill="#FCC6CD" transform="translate(395,317)"/>
<path d="M0 0 C3.465 1.98 3.465 1.98 7 4 C4.45297384 5.27351308 3.5717055 4.80191925 0.875 4.0625 C0.15054688 3.86785156 -0.57390625 3.67320312 -1.3203125 3.47265625 C-1.87460937 3.31667969 -2.42890625 3.16070312 -3 3 C-2.01 2.01 -1.02 1.02 0 0 Z " fill="#D5454F" transform="translate(589,256)"/>
<path d="M0 0 C0 0.99 0 1.98 0 3 C-2.27837542 5.27837542 -3.50812237 5.96646289 -6.75 6.1875 C-7.86375 6.0946875 -7.86375 6.0946875 -9 6 C-6.11964908 3.75972706 -3.15133488 1.83827868 0 0 Z " fill="#DA4452" transform="translate(366,67)"/>
<path d="M0 0 C1.231394 3.69418201 0.64432764 6.2056261 0 10 C-2.72727273 5.90909091 -2.72727273 5.90909091 -3 3 C-1.5625 1.25 -1.5625 1.25 0 0 Z " fill="#D24150" transform="translate(613,238)"/>
<path d="M0 0 C0.66 0.33 1.32 0.66 2 1 C0.35 3.64 -1.3 6.28 -3 9 C-4 6 -4 6 -3.1875 3.375 C-2 1 -2 1 0 0 Z " fill="#D33F48" transform="translate(175,148)"/>
<path d="M0 0 C0.33 0.66 0.66 1.32 1 2 C-1.40436026 5.60654039 -2.94679607 5.85452932 -7 7 C-4.78071806 4.09197539 -3.07030857 2.04687238 0 0 Z " fill="#DA4056" transform="translate(324,96)"/>
<path d="M0 0 C1.32 0.66 2.64 1.32 4 2 C4 2.66 4 3.32 4 4 C5.32 4.66 6.64 5.32 8 6 C4.00095031 6 2.19799578 4.27413033 -1 2 C-0.67 1.34 -0.34 0.68 0 0 Z " fill="#FEE0DD" transform="translate(398,394)"/>
<path d="M0 0 C0.33 1.32 0.66 2.64 1 4 C-1.90600261 5.25664978 -3.79604584 6 -7 6 C-4.69 4.02 -2.38 2.04 0 0 Z " fill="#DB3C51" transform="translate(596,354)"/>
<path d="M0 0 C0.66 0 1.32 0 2 0 C2.25 2.3125 2.25 2.3125 2 5 C0 6.8125 0 6.8125 -2 8 C-1.34 5.36 -0.68 2.72 0 0 Z " fill="#FDC9CC" transform="translate(544,317)"/>
<path d="M0 0 C1.32 0.33 2.64 0.66 4 1 C-1.75 6 -1.75 6 -4 6 C-4 5.34 -4 4.68 -4 4 C-3.34 4 -2.68 4 -2 4 C-1.34 2.68 -0.68 1.36 0 0 Z " fill="#FFE3DE" transform="translate(617,232)"/>
<path d="M0 0 C0.99 0.66 1.98 1.32 3 2 C1.71034824 3.37562854 0.37310707 4.70766393 -1 6 C-1.66 6 -2.32 6 -3 6 C-1.125 1.125 -1.125 1.125 0 0 Z " fill="#E32D47" transform="translate(396,223)"/>
<path d="M0 0 C0.33 0 0.66 0 1 0 C1.17942163 3.94727588 1.09350689 6.5980513 -1 10 C-1.66 10 -2.32 10 -3 10 C-2.01 6.7 -1.02 3.4 0 0 Z " fill="#FDDDDB" transform="translate(154,190)"/>
<path d="M0 0 C0.99 0.33 1.98 0.66 3 1 C1.35 2.98 -0.3 4.96 -2 7 C-2.66 5.68 -3.32 4.36 -4 3 C-3.01 2.67 -2.02 2.34 -1 2 C-0.67 1.34 -0.34 0.68 0 0 Z " fill="#DE3D4B" transform="translate(189,129)"/>
<path d="M0 0 C1 3 1 3 0.0625 5.1875 C-0.4634375 6.0846875 -0.4634375 6.0846875 -1 7 C-2.32 6.67 -3.64 6.34 -5 6 C-3.35 4.02 -1.7 2.04 0 0 Z " fill="#E14557" transform="translate(292,128)"/>
</svg>
